<svg width="132" height="23" viewBox="0 0 132 23" fill="none" xmlns="http://www.w3.org/2000/svg">
<path d="M11.3855 16.5794L15.7187 19.3306C16.2775 19.6831 16.9653 19.1587 16.802 18.5139L15.5467 13.5788C15.5128 13.442 15.5182 13.2984 15.5623 13.1646C15.6064 13.0307 15.6874 12.912 15.7961 12.8222L19.6822 9.58089C20.1895 9.15961 19.9315 8.30844 19.2695 8.26545L14.1969 7.93874C14.0585 7.93069 13.9254 7.88249 13.814 7.80004C13.7025 7.71759 13.6175 7.60446 13.5693 7.47447L11.6778 2.71137C11.6277 2.57372 11.5365 2.45482 11.4165 2.37079C11.2966 2.28677 11.1536 2.2417 11.0072 2.2417C10.8607 2.2417 10.7178 2.28677 10.5978 2.37079C10.4778 2.45482 10.3866 2.57372 10.3366 2.71137L8.44507 7.47447C8.39686 7.60446 8.31183 7.71759 8.20037 7.80004C8.08891 7.88249 7.95585 7.93069 7.81744 7.93874L2.74482 8.26545C2.0828 8.30844 1.82488 9.15961 2.33214 9.58089L6.21828 12.8222C6.3269 12.912 6.40793 13.0307 6.45204 13.1646C6.49615 13.2984 6.50155 13.442 6.46761 13.5788L5.30693 18.1528C5.10918 18.9265 5.93455 19.5542 6.59657 19.1329L10.6289 16.5794C10.7419 16.5075 10.8732 16.4693 11.0072 16.4693C11.1412 16.4693 11.2724 16.5075 11.3855 16.5794Z" fill="#E13C5A" stroke="#E13C5A" stroke-width="1.37563" stroke-linecap="round" stroke-linejoin="round"/>
<path d="M38.6779 16.5794L43.0111 19.3306C43.57 19.6831 44.2578 19.1587 44.0944 18.5139L42.8392 13.5788C42.8052 13.442 42.8106 13.2984 42.8547 13.1646C42.8988 13.0307 42.9799 12.912 43.0885 12.8222L46.9746 9.58089C47.4819 9.15961 47.224 8.30844 46.5619 8.26545L41.4893 7.93874C41.3509 7.93069 41.2178 7.88249 41.1064 7.80004C40.9949 7.71759 40.9099 7.60446 40.8617 7.47447L38.9702 2.71137C38.9201 2.57372 38.8289 2.45482 38.709 2.37079C38.589 2.28677 38.4461 2.2417 38.2996 2.2417C38.1531 2.2417 38.0102 2.28677 37.8902 2.37079C37.7703 2.45482 37.679 2.57372 37.629 2.71137L35.7375 7.47447C35.6893 7.60446 35.6043 7.71759 35.4928 7.80004C35.3813 7.88249 35.2483 7.93069 35.1099 7.93874L30.0372 8.26545C29.3752 8.30844 29.1173 9.15961 29.6246 9.58089L33.5107 12.8222C33.6193 12.912 33.7003 13.0307 33.7445 13.1646C33.7886 13.2984 33.794 13.442 33.76 13.5788L32.5993 18.1528C32.4016 18.9265 33.227 19.5542 33.889 19.1329L37.9213 16.5794C38.0344 16.5075 38.1656 16.4693 38.2996 16.4693C38.4336 16.4693 38.5648 16.5075 38.6779 16.5794Z" fill="#E13C5A" stroke="#E13C5A" stroke-width="1.37563" stroke-linecap="round" stroke-linejoin="round"/>
<path d="M65.9702 16.5794L70.3035 19.3306C70.8623 19.6831 71.5501 19.1587 71.3868 18.5139L70.1315 13.5788C70.0976 13.442 70.103 13.2984 70.1471 13.1646C70.1912 13.0307 70.2722 12.912 70.3808 12.8222L74.267 9.58089C74.7742 9.15961 74.5163 8.30844 73.8543 8.26545L68.7817 7.93874C68.6433 7.93069 68.5102 7.88249 68.3987 7.80004C68.2873 7.71759 68.2023 7.60446 68.1541 7.47447L66.2626 2.71137C66.2125 2.57372 66.1213 2.45482 66.0013 2.37079C65.8813 2.28677 65.7384 2.2417 65.5919 2.2417C65.4455 2.2417 65.3026 2.28677 65.1826 2.37079C65.0626 2.45482 64.9714 2.57372 64.9213 2.71137L63.0298 7.47447C62.9816 7.60446 62.8966 7.71759 62.7852 7.80004C62.6737 7.88249 62.5406 7.93069 62.4022 7.93874L57.3296 8.26545C56.6676 8.30844 56.4097 9.15961 56.9169 9.58089L60.8031 12.8222C60.9117 12.912 60.9927 13.0307 61.0368 13.1646C61.0809 13.2984 61.0863 13.442 61.0524 13.5788L59.8917 18.1528C59.694 18.9265 60.5193 19.5542 61.1814 19.1329L65.2137 16.5794C65.3267 16.5075 65.458 16.4693 65.5919 16.4693C65.7259 16.4693 65.8572 16.5075 65.9702 16.5794Z" fill="#E13C5A" stroke="#E13C5A" stroke-width="1.37563" stroke-linecap="round" stroke-linejoin="round"/>
<path d="M93.2627 16.5794L97.5959 19.3306C98.1547 19.6831 98.8425 19.1587 98.6792 18.5139L97.4239 13.5788C97.39 13.442 97.3954 13.2984 97.4395 13.1646C97.4836 13.0307 97.5646 12.912 97.6733 12.8222L101.559 9.58089C102.067 9.15961 101.809 8.30844 101.147 8.26545L96.0741 7.93874C95.9357 7.93069 95.8026 7.88249 95.6912 7.80004C95.5797 7.71759 95.4947 7.60446 95.4465 7.47447L93.555 2.71137C93.5049 2.57372 93.4137 2.45482 93.2937 2.37079C93.1738 2.28677 93.0308 2.2417 92.8844 2.2417C92.7379 2.2417 92.595 2.28677 92.475 2.37079C92.355 2.45482 92.2638 2.57372 92.2138 2.71137L90.3223 7.47447C90.2741 7.60446 90.189 7.71759 90.0776 7.80004C89.9661 7.88249 89.833 7.93069 89.6946 7.93874L84.622 8.26545C83.96 8.30844 83.7021 9.15961 84.2093 9.58089L88.0955 12.8222C88.2041 12.912 88.2851 13.0307 88.3292 13.1646C88.3734 13.2984 88.3787 13.442 88.3448 13.5788L87.1841 18.1528C86.9864 18.9265 87.8118 19.5542 88.4738 19.1329L92.5061 16.5794C92.6191 16.5075 92.7504 16.4693 92.8844 16.4693C93.0184 16.4693 93.1496 16.5075 93.2627 16.5794Z" fill="#E13C5A" stroke="#E13C5A" stroke-width="1.37563" stroke-linecap="round" stroke-linejoin="round"/>
<path d="M120.555 16.5794L124.888 19.3306C125.447 19.6831 126.135 19.1587 125.972 18.5139L124.716 13.5788C124.682 13.442 124.688 13.2984 124.732 13.1646C124.776 13.0307 124.857 12.912 124.966 12.8222L128.852 9.58089C129.359 9.15961 129.101 8.30844 128.439 8.26545L123.366 7.93874C123.228 7.93069 123.095 7.88249 122.984 7.80004C122.872 7.71759 122.787 7.60446 122.739 7.47447L120.847 2.71137C120.797 2.57372 120.706 2.45482 120.586 2.37079C120.466 2.28677 120.323 2.2417 120.177 2.2417C120.03 2.2417 119.887 2.28677 119.767 2.37079C119.647 2.45482 119.556 2.57372 119.506 2.71137L117.615 7.47447C117.566 7.60446 117.481 7.71759 117.37 7.80004C117.258 7.88249 117.125 7.93069 116.987 7.93874L111.914 8.26545C111.252 8.30844 110.994 9.15961 111.502 9.58089L115.388 12.8222C115.496 12.912 115.577 13.0307 115.622 13.1646C115.666 13.2984 115.671 13.442 115.637 13.5788L114.476 18.1528C114.279 18.9265 115.104 19.5542 115.766 19.1329L119.798 16.5794C119.912 16.5075 120.043 16.4693 120.177 16.4693C120.311 16.4693 120.442 16.5075 120.555 16.5794V16.5794Z" stroke="#E13C5A" stroke-width="1.37563" stroke-linecap="round" stroke-linejoin="round"/>
</svg>
