<svg width="634" height="159" viewBox="0 0 634 159" fill="none" xmlns="http://www.w3.org/2000/svg">
<path d="M81.8026 108.013L81.8876 107.81L81.8026 108.013ZM217.384 88.6445L217.329 88.8574L217.384 88.6445ZM322.152 155.555L322.212 155.767L322.152 155.555ZM414.594 127.382L414.491 127.188L414.594 127.382ZM594.195 133.545L594.048 133.382L594.195 133.545ZM632.933 88.6445L632.714 88.6696L632.933 88.6445ZM563.248 47.0904C563.151 47.1639 563.133 47.302 563.206 47.3988L564.404 48.9765C564.477 49.0733 564.615 49.0922 564.712 49.0187C564.809 48.9452 564.828 48.8071 564.755 48.7103L563.69 47.3079L565.092 46.2432C565.189 46.1697 565.208 46.0316 565.134 45.9348C565.061 45.838 564.923 45.8191 564.826 45.8926L563.248 47.0904ZM0.805786 0.604492C0.599602 0.681513 0.599604 0.681517 0.599606 0.681522C0.599607 0.681526 0.59961 0.681533 0.599612 0.68154C0.599618 0.681554 0.599625 0.681574 0.599634 0.681599C0.599653 0.68165 0.59968 0.681722 0.599715 0.681815C0.599785 0.682003 0.599888 0.682277 0.600023 0.682637C0.600292 0.683358 0.600691 0.684425 0.60122 0.685837C0.602277 0.688659 0.603852 0.69286 0.605943 0.69843C0.610125 0.709568 0.616372 0.726181 0.624677 0.748189C0.641286 0.792205 0.666125 0.857803 0.699124 0.944356C0.765123 1.11746 0.863767 1.37439 0.994515 1.71013L1.40471 1.55039C1.27435 1.21565 1.17608 0.959693 1.11044 0.787535C1.07762 0.701457 1.05296 0.636328 1.03653 0.592775C1.02831 0.570999 1.02215 0.554616 1.01806 0.543706C1.01601 0.538251 1.01448 0.534164 1.01346 0.531455C1.01295 0.530101 1.01258 0.529091 1.01233 0.528426C1.0122 0.528094 1.01211 0.527848 1.01205 0.527689C1.01202 0.52761 1.012 0.527552 1.01199 0.527515C1.01198 0.527497 1.01197 0.527484 1.01197 0.527477C1.01197 0.527473 1.01197 0.527472 1.01197 0.52747C1.01197 0.52747 1.01197 0.527471 0.805786 0.604492ZM1.79626 3.73229C2.04044 4.33878 2.32126 5.02874 2.63803 5.79581L3.0449 5.62779C2.72865 4.86196 2.44832 4.1732 2.2046 3.56788L1.79626 3.73229ZM3.49239 7.84196C3.76446 8.48666 4.05511 9.16912 4.36407 9.88691L4.76841 9.71287C4.45986 8.99606 4.16963 8.31457 3.89796 7.67081L3.49239 7.84196ZM5.25851 11.9453C5.54403 12.5964 5.84212 13.2704 6.15264 13.9661L6.55462 13.7867C6.24449 13.0919 5.94678 12.4187 5.66165 11.7685L5.25851 11.9453ZM7.05921 15.98C7.36188 16.6468 7.67466 17.3302 7.99744 18.0294L8.3971 17.8449C8.07472 17.1466 7.76233 16.464 7.46004 15.7981L7.05921 15.98ZM8.92048 20.0127C9.23125 20.6751 9.55024 21.3498 9.87734 22.0359L10.2747 21.8464C9.94799 21.1612 9.6294 20.4874 9.319 19.8257L8.92048 20.0127ZM10.8327 24.0239C11.1519 24.683 11.4782 25.3514 11.8113 26.0284L12.2063 25.834C11.8736 25.1579 11.5477 24.4903 11.2289 23.832L10.8327 24.0239ZM12.7935 28.0089C13.1219 28.6658 13.4564 29.3299 13.797 30.0007L14.1895 29.8014C13.8493 29.1315 13.5152 28.4682 13.1873 27.8121L12.7935 28.0089ZM14.8035 31.9673C15.1416 32.6228 15.4852 33.2838 15.8343 33.9501L16.2242 33.7458C15.8755 33.0804 15.5324 32.4201 15.1947 31.7655L14.8035 31.9673ZM16.8641 35.8997C17.2123 36.5537 17.5656 37.2122 17.9239 37.8745L18.3111 37.6651C17.9532 37.0036 17.6004 36.346 17.2527 35.6929L16.8641 35.8997ZM18.9772 39.8059C19.333 40.4532 19.6935 41.1037 20.0586 41.7572L20.4429 41.5424C20.0783 40.8899 19.7183 40.2402 19.363 39.5939L18.9772 39.8059ZM21.1447 43.6849C21.5083 44.325 21.8763 44.9675 22.2485 45.6121L22.6297 45.3919C22.258 44.7483 21.8905 44.1067 21.5274 43.4674L21.1447 43.6849ZM23.3682 47.5343C23.7402 48.1676 24.1163 48.8025 24.4965 49.4386L24.8743 49.2128C24.4948 48.5776 24.1192 47.9437 23.7478 47.3113L23.3682 47.5343ZM25.649 51.3503C26.0302 51.9773 26.4154 52.6051 26.8044 53.2335L27.1787 53.0018C26.7903 52.3744 26.4058 51.7476 26.0251 51.1216L25.649 51.3503ZM27.9823 55.1192C28.3758 55.7436 28.7732 56.3682 29.1742 56.9927L29.5446 56.7549C29.1442 56.1314 28.7476 55.5078 28.3547 54.8844L27.9823 55.1192ZM30.3803 58.8536C30.7858 59.4734 31.195 60.0928 31.6077 60.7115L31.9739 60.4672C31.5619 59.8496 31.1535 59.2313 30.7487 58.6126L30.3803 58.8536ZM32.8452 62.5485C33.2611 63.1599 33.6806 63.7704 34.1036 64.3796L34.4652 64.1286C34.043 63.5205 33.6243 62.9112 33.2091 62.3009L32.8452 62.5485ZM35.379 66.1978C35.8064 66.8009 36.2372 67.4024 36.6714 68.0021L37.028 67.7439C36.5947 67.1455 36.1647 66.5452 35.7381 65.9433L35.379 66.1978ZM37.984 69.7953C38.4241 70.39 38.8676 70.9825 39.3143 71.5726L39.6652 71.3069C39.2195 70.7181 38.777 70.1268 38.3379 69.5334L37.984 69.7953ZM40.6642 73.3355C41.1178 73.921 41.5747 74.5038 42.0349 75.0836L42.3797 74.81C41.9206 74.2315 41.4648 73.6501 41.0122 73.0659L40.6642 73.3355ZM43.4262 76.8153C43.8932 77.3894 44.3634 77.9601 44.8368 78.5273L45.1747 78.2452C44.7026 77.6795 44.2335 77.1102 43.7677 76.5375L43.4262 76.8153ZM46.2735 80.2259C46.7556 80.7884 47.241 81.347 47.7295 81.9013L48.0598 81.6103C47.5726 81.0575 47.0886 80.5004 46.6077 79.9394L46.2735 80.2259ZM49.2099 83.5575C49.7087 84.1075 50.2107 84.653 50.7158 85.1936L51.0375 84.893C50.5339 84.3541 50.0333 83.8102 49.5359 83.2618L49.2099 83.5575ZM52.2406 86.8003C52.7574 87.3364 53.2773 87.8672 53.8004 88.3923L54.1123 88.0817C53.591 87.5583 53.0727 87.0292 52.5576 86.4948L52.2406 86.8003ZM55.3798 89.9513C55.9129 90.4685 56.4491 90.9798 56.9885 91.4846L57.2893 91.1633C56.7519 90.6602 56.2176 90.1508 55.6863 89.6354L55.3798 89.9513ZM58.6269 92.9899C59.1768 93.4855 59.7298 93.9743 60.2859 94.456L60.5741 94.1233C60.0203 93.6435 59.4694 93.1566 58.9217 92.6629L58.6269 92.9899ZM61.9878 95.8999C62.5583 96.3736 63.1319 96.8397 63.7087 97.2978L63.9825 96.9531C63.4083 96.497 62.8371 96.033 62.269 95.5612L61.9878 95.8999ZM65.4682 98.6629C66.0611 99.112 66.6572 99.5524 67.2565 99.9839L67.5137 99.6266C66.9174 99.1973 66.3242 98.759 65.734 98.312L65.4682 98.6629ZM69.074 101.258C69.6903 101.678 70.3098 102.089 70.9325 102.489L71.1707 102.119C70.5514 101.721 69.9352 101.312 69.3221 100.894L69.074 101.258ZM72.8105 103.661C73.4505 104.047 74.0938 104.423 74.7403 104.788L74.9566 104.404C74.314 104.042 73.6745 103.668 73.0381 103.284L72.8105 103.661ZM76.6895 105.847C77.3502 106.193 78.0141 106.527 78.6812 106.849L78.8724 106.452C78.2097 106.133 77.5501 105.801 76.8937 105.457L76.6895 105.847ZM80.7007 107.78C81.0388 107.928 81.3778 108.074 81.7176 108.216L81.8876 107.81C81.5503 107.669 81.2138 107.524 80.878 107.377L80.7007 107.78ZM81.7176 108.216C82.0649 108.362 82.4115 108.504 82.7574 108.642L82.9207 108.233C82.5771 108.096 82.2327 107.955 81.8876 107.81L81.7176 108.216ZM84.8243 109.428C85.5187 109.679 86.2104 109.915 86.8992 110.138L87.0345 109.719C86.3504 109.498 85.6636 109.263 84.9738 109.014L84.8243 109.428ZM89.0225 110.782C89.7311 110.983 90.4368 111.17 91.1398 111.342L91.2446 110.915C90.5468 110.744 89.8462 110.558 89.1428 110.359L89.0225 110.782ZM93.3063 111.831C94.0274 111.979 94.7456 112.113 95.4611 112.233L95.5337 111.799C94.8236 111.68 94.1108 111.547 93.3951 111.4L93.3063 111.831ZM97.6564 112.557C98.3867 112.651 99.1143 112.73 99.8392 112.796L99.8788 112.357C99.1593 112.292 98.4373 112.214 97.7125 112.121L97.6564 112.557ZM102.049 112.953C102.785 112.992 103.517 113.016 104.248 113.028L104.254 112.587C103.529 112.576 102.802 112.552 102.072 112.514L102.049 112.953ZM106.459 113.021C107.195 113.006 107.929 112.977 108.66 112.936L108.635 112.497C107.909 112.537 107.181 112.566 106.45 112.581L106.459 113.021ZM110.863 112.775C111.595 112.708 112.326 112.63 113.054 112.54L113 112.103C112.277 112.193 111.551 112.27 110.823 112.336L110.863 112.775ZM115.239 112.236C115.966 112.123 116.69 112 117.413 111.866L117.333 111.433C116.614 111.566 115.894 111.689 115.172 111.801L115.239 112.236ZM119.575 111.435C120.293 111.281 121.01 111.118 121.724 110.946L121.621 110.518C120.91 110.69 120.197 110.852 119.483 111.004L119.575 111.435ZM123.861 110.405C124.57 110.216 125.278 110.019 125.984 109.814L125.861 109.392C125.158 109.595 124.454 109.791 123.748 109.979L123.861 110.405ZM128.095 109.18C128.794 108.961 129.493 108.736 130.191 108.505L130.052 108.087C129.357 108.318 128.661 108.542 127.964 108.759L128.095 109.18ZM132.277 107.794C132.968 107.552 133.659 107.305 134.349 107.052L134.197 106.639C133.509 106.891 132.821 107.137 132.132 107.379L132.277 107.794ZM136.413 106.281C137.098 106.02 137.781 105.755 138.465 105.486L138.303 105.077C137.621 105.345 136.939 105.609 136.257 105.869L136.413 106.281ZM140.511 104.67C141.19 104.396 141.868 104.118 142.546 103.838L142.378 103.431C141.701 103.711 141.024 103.988 140.346 104.262L140.511 104.67ZM144.579 102.991C145.254 102.707 145.929 102.422 146.604 102.134L146.432 101.729C145.758 102.016 145.083 102.302 144.409 102.585L144.579 102.991ZM148.629 101.27C149.302 100.981 149.975 100.692 150.649 100.402L150.475 99.9979C149.801 100.288 149.128 100.577 148.455 100.865L148.629 101.27ZM152.67 99.5329C153.343 99.2437 154.016 98.9548 154.69 98.6666L154.517 98.2619C153.843 98.5502 153.169 98.8392 152.496 99.1284L152.67 99.5329ZM156.713 97.805C157.388 97.5193 158.063 97.2349 158.739 96.9524L158.569 96.5462C157.892 96.8291 157.217 97.1138 156.542 97.3997L156.713 97.805ZM160.769 96.1109C161.447 95.8328 162.126 95.557 162.805 95.2843L162.641 94.8757C161.961 95.149 161.281 95.4252 160.602 95.7037L160.769 96.1109ZM164.848 94.4754C165.53 94.2091 166.214 93.9462 166.899 93.6875L166.743 93.2757C166.057 93.5351 165.372 93.7985 164.688 94.0654L164.848 94.4754ZM168.958 92.924C169.646 92.6737 170.336 92.4282 171.027 92.1878L170.883 91.772C170.189 92.0131 169.498 92.2594 168.808 92.5103L168.958 92.924ZM173.106 91.4827C173.801 91.2531 174.498 91.0293 175.197 90.8118L175.066 90.3915C174.365 90.6098 173.665 90.8344 172.968 91.0647L173.106 91.4827ZM177.298 90.1786C178.001 89.9743 178.705 89.7768 179.411 89.5868L179.297 89.1617C178.587 89.3526 177.88 89.5508 177.175 89.756L177.298 90.1786ZM181.536 89.0393C182.246 88.8649 182.958 88.6984 183.672 88.5404L183.577 88.1106C182.859 88.2694 182.144 88.4367 181.431 88.6119L181.536 89.0393ZM185.82 88.0924C186.536 87.9524 187.255 87.8213 187.976 87.6998L187.903 87.2657C187.178 87.3879 186.456 87.5197 185.736 87.6604L185.82 88.0924ZM190.145 87.3643C190.867 87.2629 191.59 87.1714 192.317 87.0903L192.268 86.6529C191.537 86.7344 190.809 86.8264 190.084 86.9283L190.145 87.3643ZM194.503 86.8791C195.228 86.82 195.955 86.7716 196.685 86.7344L196.663 86.2948C195.928 86.3322 195.196 86.3809 194.468 86.4403L194.503 86.8791ZM198.882 86.657C199.607 86.643 200.335 86.6403 201.065 86.6494L201.071 86.2092C200.335 86.2 199.603 86.2028 198.874 86.2169L198.882 86.657ZM203.267 86.7128C203.989 86.7454 204.713 86.7898 205.441 86.8465L205.476 86.4076C204.743 86.3506 204.013 86.3059 203.287 86.273L203.267 86.7128ZM207.635 87.0539C208.352 87.1336 209.072 87.2255 209.795 87.3299L209.858 86.8942C209.13 86.7891 208.405 86.6966 207.684 86.6164L207.635 87.0539ZM211.969 87.6802C212.679 87.8066 213.392 87.9453 214.109 88.0967L214.2 87.666C213.479 87.5136 212.761 87.374 212.046 87.2468L211.969 87.6802ZM216.25 88.5847C216.609 88.6724 216.968 88.7633 217.329 88.8574L217.44 88.4316C217.077 88.3368 216.716 88.2453 216.355 88.1571L216.25 88.5847ZM217.329 88.8574C217.692 88.9525 218.053 89.049 218.41 89.1471L218.527 88.7226C218.167 88.624 217.805 88.527 217.44 88.4316L217.329 88.8574ZM220.524 89.754C221.217 89.9622 221.9 90.1764 222.572 90.3964L222.709 89.9781C222.033 89.757 221.347 89.5417 220.65 89.3324L220.524 89.754ZM224.645 91.1054C225.339 91.353 226.021 91.607 226.692 91.8671L226.851 91.4567C226.177 91.1951 225.491 90.9398 224.793 90.6908L224.645 91.1054ZM228.673 92.667C229.361 92.9562 230.037 93.2521 230.7 93.5543L230.883 93.1537C230.215 92.8497 229.536 92.5521 228.843 92.2612L228.673 92.667ZM232.653 94.4799C233.312 94.8043 233.957 95.1351 234.591 95.4722L234.797 95.0836C234.16 94.7444 233.51 94.4114 232.848 94.085L232.653 94.4799ZM236.5 96.528C237.129 96.8896 237.746 97.2575 238.35 97.6313L238.582 97.2569C237.974 96.8806 237.353 96.5102 236.719 96.1463L236.5 96.528ZM240.197 98.8169C240.8 99.2183 241.389 99.6258 241.967 100.039L242.223 99.6811C241.641 99.265 241.048 98.8547 240.441 98.4506L240.197 98.8169ZM243.729 101.347C244.305 101.79 244.868 102.239 245.419 102.694L245.699 102.354C245.145 101.897 244.578 101.445 243.998 100.999L243.729 101.347ZM247.081 104.113C247.627 104.595 248.16 105.082 248.68 105.574L248.983 105.254C248.458 104.759 247.922 104.268 247.373 103.783L247.081 104.113ZM250.241 107.098C250.753 107.615 251.254 108.137 251.743 108.663L252.065 108.363C251.573 107.834 251.069 107.309 250.554 106.788L250.241 107.098ZM253.203 110.282C253.682 110.83 254.15 111.382 254.607 111.937L254.947 111.657C254.487 111.099 254.016 110.544 253.534 109.993L253.203 110.282ZM255.971 113.64C256.418 114.213 256.855 114.79 257.282 115.369L257.636 115.107C257.207 114.526 256.768 113.946 256.318 113.369L255.971 113.64ZM258.558 117.141C258.976 117.736 259.384 118.332 259.785 118.93L260.151 118.685C259.748 118.085 259.338 117.485 258.918 116.888L258.558 117.141ZM260.985 120.758C261.379 121.37 261.765 121.982 262.144 122.594L262.519 122.362C262.138 121.748 261.75 121.134 261.355 120.52L260.985 120.758ZM263.283 124.461C263.659 125.086 264.028 125.71 264.393 126.333L264.773 126.11C264.408 125.486 264.037 124.861 263.66 124.234L263.283 124.461ZM265.489 128.221C265.854 128.855 266.214 129.487 266.572 130.116L266.954 129.898C266.597 129.269 266.236 128.637 265.87 128.002L265.489 128.221ZM267.647 132.01C268.009 132.649 268.37 133.284 268.729 133.914L269.111 133.695C268.752 133.066 268.392 132.432 268.03 131.793L267.647 132.01ZM269.813 135.8C270.182 136.437 270.551 137.068 270.922 137.692L271.3 137.467C270.931 136.845 270.562 136.215 270.193 135.579L269.813 135.8ZM272.052 139.561C272.437 140.186 272.825 140.802 273.216 141.408L273.586 141.169C273.196 140.566 272.81 139.952 272.427 139.33L272.052 139.561ZM274.432 143.236C274.848 143.841 275.269 144.435 275.697 145.016L276.052 144.755C275.626 144.178 275.208 143.588 274.795 142.987L274.432 143.236ZM277.033 146.755C277.495 147.329 277.965 147.889 278.448 148.434L278.777 148.142C278.3 147.603 277.834 147.049 277.376 146.479L277.033 146.755ZM279.945 150.032C280.462 150.554 280.994 151.057 281.54 151.542L281.832 151.212C281.293 150.734 280.769 150.237 280.257 149.722L279.945 150.032ZM283.233 152.94C283.812 153.385 284.409 153.809 285.024 154.211L285.265 153.842C284.659 153.446 284.072 153.029 283.501 152.591L283.233 152.94ZM286.913 155.34C287.548 155.686 288.201 156.009 288.876 156.31L289.055 155.907C288.391 155.612 287.748 155.294 287.124 154.954L286.913 155.34ZM290.923 157.125C291.601 157.365 292.3 157.583 293.02 157.778L293.135 157.353C292.425 157.161 291.738 156.946 291.07 156.71L290.923 157.125ZM295.146 158.273C295.858 158.413 296.591 158.532 297.344 158.63L297.4 158.193C296.656 158.097 295.934 157.979 295.231 157.841L295.146 158.273ZM299.488 158.844C300.213 158.896 300.956 158.929 301.718 158.942L301.725 158.502C300.971 158.489 300.236 158.456 299.52 158.405L299.488 158.844ZM303.865 158.93C304.595 158.909 305.341 158.871 306.105 158.816L306.073 158.377C305.316 158.432 304.576 158.469 303.853 158.49L303.865 158.93ZM308.229 158.624C308.952 158.545 309.689 158.452 310.442 158.344L310.379 157.908C309.632 158.016 308.899 158.108 308.182 158.186L308.229 158.624ZM312.567 158.006C313.271 157.884 313.989 157.749 314.719 157.601L314.632 157.169C313.905 157.316 313.192 157.451 312.491 157.573L312.567 158.006ZM316.889 157.134C317.571 156.978 318.263 156.812 318.967 156.635L318.86 156.208C318.159 156.384 317.469 156.55 316.791 156.704L316.889 157.134ZM321.113 156.072C321.477 155.973 321.843 155.871 322.212 155.767L322.092 155.343C321.724 155.447 321.359 155.549 320.997 155.648L321.113 156.072ZM322.212 155.767C322.573 155.664 322.933 155.563 323.29 155.463L323.171 155.039C322.813 155.139 322.454 155.241 322.092 155.343L322.212 155.767ZM325.408 154.875C326.128 154.678 326.84 154.485 327.543 154.296L327.429 153.871C326.725 154.06 326.013 154.253 325.291 154.451L325.408 154.875ZM329.655 153.737C330.381 153.547 331.098 153.362 331.806 153.181L331.697 152.755C330.988 152.936 330.27 153.121 329.544 153.311L329.655 153.737ZM333.938 152.643C334.659 152.464 335.37 152.289 336.073 152.118L335.969 151.69C335.266 151.861 334.553 152.036 333.832 152.216L333.938 152.643ZM338.225 151.602C338.948 151.431 339.661 151.264 340.366 151.102L340.267 150.673C339.561 150.836 338.847 151.003 338.124 151.174L338.225 151.602ZM342.51 150.612C343.238 150.448 343.958 150.288 344.669 150.131L344.574 149.701C343.863 149.858 343.142 150.019 342.413 150.183L342.51 150.612ZM346.821 149.662C347.546 149.506 348.262 149.353 348.97 149.203L348.879 148.772C348.17 148.923 347.453 149.075 346.728 149.232L346.821 149.662ZM351.129 148.75C351.858 148.598 352.578 148.449 353.292 148.301L353.203 147.87C352.489 148.017 351.768 148.167 351.039 148.319L351.129 148.75ZM355.451 147.858C356.177 147.709 356.896 147.562 357.609 147.416L357.52 146.985C356.808 147.131 356.088 147.278 355.363 147.427L355.451 147.858ZM359.766 146.973C360.491 146.823 361.211 146.674 361.926 146.525L361.836 146.094C361.121 146.243 360.402 146.392 359.677 146.542L359.766 146.973ZM364.086 146.069C364.808 145.915 365.527 145.759 366.242 145.602L366.148 145.172C365.433 145.329 364.716 145.484 363.994 145.638L364.086 146.069ZM368.395 145.122C369.113 144.959 369.829 144.794 370.545 144.625L370.443 144.196C369.729 144.365 369.015 144.53 368.298 144.693L368.395 145.122ZM372.69 144.107C373.403 143.931 374.116 143.751 374.83 143.565L374.72 143.139C374.007 143.324 373.296 143.504 372.584 143.68L372.69 144.107ZM376.965 142.999C377.67 142.806 378.378 142.609 379.089 142.405L378.968 141.981C378.259 142.185 377.553 142.382 376.849 142.574L376.965 142.999ZM381.205 141.782C381.904 141.571 382.606 141.353 383.313 141.129L383.18 140.709C382.475 140.933 381.775 141.15 381.078 141.36L381.205 141.782ZM385.414 140.445C386.107 140.214 386.805 139.975 387.509 139.729L387.363 139.313C386.661 139.559 385.965 139.797 385.275 140.027L385.414 140.445ZM389.584 138.986C390.265 138.736 390.953 138.479 391.647 138.214L391.49 137.803C390.798 138.067 390.112 138.324 389.433 138.572L389.584 138.986ZM393.705 137.412C394.383 137.142 395.067 136.865 395.76 136.579L395.592 136.172C394.901 136.457 394.218 136.734 393.542 137.003L393.705 137.412ZM397.787 135.726C398.454 135.442 399.127 135.149 399.808 134.848L399.63 134.445C398.95 134.745 398.279 135.038 397.614 135.322L397.787 135.726ZM401.831 133.94C402.49 133.64 403.155 133.332 403.829 133.017L403.642 132.618C402.97 132.933 402.306 133.24 401.649 133.539L401.831 133.94ZM405.819 132.072C406.478 131.755 407.145 131.43 407.819 131.098L407.625 130.703C406.951 131.035 406.286 131.359 405.628 131.675L405.819 132.072ZM409.777 130.122C410.428 129.794 411.086 129.458 411.752 129.115L411.55 128.724C410.885 129.066 410.228 129.401 409.579 129.729L409.777 130.122ZM413.704 128.1C414.033 127.927 414.364 127.753 414.697 127.577L414.491 127.188C414.158 127.364 413.828 127.538 413.499 127.71L413.704 128.1ZM414.697 127.577C415.027 127.401 415.358 127.23 415.688 127.061L415.488 126.669C415.156 126.839 414.823 127.011 414.491 127.188L414.697 127.577ZM417.67 126.089C418.331 125.778 418.991 125.48 419.652 125.194L419.477 124.79C418.812 125.078 418.147 125.378 417.483 125.691L417.67 126.089ZM421.675 124.358C422.362 124.087 423.049 123.829 423.736 123.585L423.589 123.17C422.897 123.416 422.205 123.676 421.513 123.949L421.675 124.358ZM425.797 122.888C426.498 122.665 427.198 122.454 427.898 122.256L427.779 121.832C427.074 122.032 426.369 122.244 425.664 122.469L425.797 122.888ZM430.021 121.695C430.728 121.52 431.435 121.359 432.143 121.209L432.051 120.778C431.34 120.929 430.628 121.092 429.915 121.267L430.021 121.695ZM434.301 120.79C435.022 120.663 435.743 120.548 436.464 120.445L436.402 120.009C435.676 120.113 434.95 120.229 434.224 120.357L434.301 120.79ZM438.63 120.171C439.359 120.091 440.088 120.022 440.816 119.965L440.782 119.526C440.049 119.584 439.315 119.652 438.582 119.733L438.63 120.171ZM443.001 119.828C443.731 119.794 444.46 119.77 445.19 119.758L445.182 119.318C444.449 119.33 443.715 119.354 442.981 119.389L443.001 119.828ZM447.382 119.752C448.112 119.76 448.843 119.779 449.573 119.808L449.59 119.368C448.856 119.339 448.122 119.32 447.387 119.312L447.382 119.752ZM451.76 119.924C452.489 119.973 453.217 120.03 453.946 120.097L453.986 119.659C453.254 119.592 452.522 119.534 451.789 119.485L451.76 119.924ZM456.129 120.326C456.853 120.41 457.577 120.503 458.3 120.605L458.361 120.169C457.635 120.067 456.907 119.973 456.18 119.888L456.129 120.326ZM460.47 120.934C461.191 121.051 461.912 121.176 462.632 121.309L462.712 120.876C461.988 120.742 461.265 120.617 460.541 120.499L460.47 120.934ZM464.783 121.726C465.499 121.872 466.216 122.026 466.932 122.186L467.027 121.756C466.309 121.596 465.59 121.442 464.871 121.295L464.783 121.726ZM469.068 122.682C469.777 122.854 470.486 123.031 471.195 123.214L471.305 122.788C470.594 122.604 469.883 122.426 469.171 122.254L469.068 122.682ZM473.321 123.781C474.024 123.974 474.727 124.172 475.43 124.375L475.552 123.952C474.848 123.748 474.143 123.55 473.437 123.356L473.321 123.781ZM477.535 124.999C478.236 125.211 478.936 125.428 479.636 125.649L479.769 125.229C479.067 125.007 478.365 124.79 477.663 124.577L477.535 124.999ZM481.723 126.32C482.419 126.548 483.114 126.779 483.808 127.014L483.949 126.597C483.253 126.362 482.557 126.13 481.86 125.902L481.723 126.32ZM485.887 127.727C486.578 127.968 487.268 128.211 487.957 128.457L488.105 128.042C487.414 127.796 486.723 127.552 486.032 127.312L485.887 127.727ZM490.025 129.202C490.713 129.452 491.401 129.705 492.088 129.96L492.241 129.547C491.553 129.292 490.865 129.039 490.176 128.788L490.025 129.202ZM494.146 130.729C494.831 130.987 495.516 131.246 496.201 131.507L496.357 131.096C495.672 130.835 494.987 130.575 494.301 130.317L494.146 130.729ZM498.254 132.293C498.938 132.556 499.622 132.82 500.305 133.085L500.464 132.674C499.78 132.41 499.097 132.146 498.412 131.882L498.254 132.293ZM502.352 133.879C503.037 134.145 503.721 134.411 504.404 134.677L504.564 134.267C503.88 134.001 503.196 133.735 502.512 133.469L502.352 133.879ZM506.453 135.474C507.136 135.739 507.818 136.004 508.5 136.268L508.659 135.857C507.977 135.594 507.295 135.329 506.612 135.064L506.453 135.474ZM510.556 137.061C511.241 137.324 511.925 137.586 512.608 137.846L512.764 137.434C512.082 137.174 511.398 136.913 510.714 136.65L510.556 137.061ZM514.665 138.623C515.354 138.882 516.042 139.139 516.73 139.393L516.882 138.98C516.195 138.726 515.508 138.47 514.819 138.211L514.665 138.623ZM518.79 140.147C519.483 140.398 520.174 140.646 520.865 140.89L521.012 140.475C520.322 140.231 519.632 139.984 518.94 139.733L518.79 140.147ZM522.944 141.616C523.636 141.855 524.328 142.09 525.019 142.32L525.158 141.902C524.469 141.672 523.778 141.438 523.087 141.2L522.944 141.616ZM527.12 143.008C527.82 143.233 528.519 143.454 529.217 143.669L529.347 143.248C528.651 143.034 527.953 142.814 527.255 142.589L527.12 143.008ZM531.321 144.302C532.03 144.51 532.739 144.712 533.446 144.908L533.563 144.484C532.858 144.288 532.152 144.087 531.445 143.879L531.321 144.302ZM535.565 145.477C536.28 145.662 536.993 145.841 537.706 146.012L537.809 145.584C537.099 145.413 536.388 145.235 535.676 145.051L535.565 145.477ZM539.854 146.507C540.571 146.664 541.286 146.814 542.001 146.955L542.087 146.523C541.375 146.382 540.662 146.234 539.948 146.077L539.854 146.507ZM544.177 147.359C544.902 147.485 545.625 147.602 546.347 147.709L546.412 147.274C545.693 147.167 544.973 147.051 544.253 146.926L544.177 147.359ZM548.533 148.004C549.266 148.092 549.997 148.17 550.727 148.238L550.767 147.799C550.041 147.732 549.314 147.655 548.586 147.567L548.533 148.004ZM552.918 148.406C553.655 148.451 554.392 148.485 555.127 148.506L555.139 148.066C554.409 148.045 553.678 148.011 552.945 147.967L552.918 148.406ZM557.329 148.531C558.065 148.527 558.8 148.51 559.534 148.479L559.515 148.039C558.787 148.069 558.057 148.087 557.326 148.091L557.329 148.531ZM561.736 148.344C562.469 148.286 563.2 148.213 563.93 148.125L563.877 147.688C563.153 147.775 562.428 147.847 561.701 147.906L561.736 148.344ZM566.113 147.817C566.839 147.7 567.564 147.567 568.288 147.418L568.199 146.987C567.482 147.135 566.763 147.266 566.042 147.383L566.113 147.817ZM570.432 146.93C571.143 146.752 571.854 146.558 572.562 146.347L572.437 145.925C571.734 146.134 571.03 146.327 570.325 146.503L570.432 146.93ZM574.665 145.673C575.353 145.435 576.04 145.181 576.726 144.911L576.564 144.502C575.885 144.77 575.204 145.021 574.521 145.256L574.665 145.673ZM578.778 144.05C579.438 143.756 580.097 143.445 580.755 143.119L580.559 142.725C579.907 143.048 579.253 143.356 578.599 143.648L578.778 144.05ZM582.712 142.096C583.355 141.743 583.998 141.373 584.639 140.986L584.411 140.609C583.775 140.993 583.138 141.36 582.5 141.71L582.712 142.096ZM586.48 139.827C587.093 139.425 587.704 139.007 588.314 138.573L588.059 138.214C587.454 138.645 586.847 139.06 586.239 139.459L586.48 139.827ZM590.09 137.261C590.66 136.824 591.229 136.373 591.796 135.907L591.517 135.567C590.953 136.03 590.388 136.478 589.822 136.912L590.09 137.261ZM593.496 134.464C593.779 134.215 594.061 133.964 594.343 133.708L594.048 133.382C593.767 133.636 593.487 133.886 593.206 134.133L593.496 134.464ZM594.343 133.708C594.612 133.464 594.88 133.225 595.149 132.988L594.858 132.658C594.588 132.896 594.318 133.137 594.048 133.382L594.343 133.708ZM596.766 131.601C597.319 131.14 597.87 130.693 598.42 130.259L598.147 129.914C597.595 130.35 597.04 130.799 596.484 131.263L596.766 131.601ZM600.118 128.955C600.698 128.522 601.275 128.103 601.848 127.698L601.594 127.338C601.017 127.746 600.438 128.167 599.855 128.602L600.118 128.955ZM603.608 126.485C604.208 126.082 604.804 125.692 605.395 125.315L605.158 124.944C604.564 125.323 603.965 125.715 603.362 126.12L603.608 126.485ZM607.208 124.184C607.825 123.807 608.437 123.442 609.042 123.087L608.82 122.707C608.212 123.063 607.598 123.43 606.979 123.808L607.208 124.184ZM610.895 122.02C611.526 121.662 612.148 121.314 612.762 120.974L612.548 120.589C611.934 120.93 611.31 121.278 610.678 121.637L610.895 122.02ZM614.637 119.941C615.273 119.592 615.899 119.248 616.514 118.909L616.301 118.524C615.687 118.863 615.062 119.206 614.425 119.555L614.637 119.941ZM618.385 117.865C619.018 117.507 619.636 117.151 620.24 116.793L620.015 116.414C619.415 116.77 618.799 117.125 618.168 117.482L618.385 117.865ZM622.071 115.666C622.687 115.273 623.284 114.874 623.86 114.465L623.605 114.106C623.036 114.51 622.445 114.905 621.834 115.296L622.071 115.666ZM625.577 113.166C626.142 112.707 626.683 112.234 627.197 111.74L626.892 111.423C626.388 111.907 625.857 112.372 625.3 112.824L625.577 113.166ZM628.682 110.168C629.149 109.62 629.586 109.047 629.991 108.444L629.626 108.198C629.23 108.787 628.803 109.347 628.347 109.883L628.682 110.168ZM631.092 106.581C631.414 105.954 631.707 105.297 631.969 104.606L631.557 104.45C631.301 105.126 631.015 105.768 630.7 106.38L631.092 106.581ZM632.628 102.544C632.808 101.869 632.961 101.165 633.088 100.428L632.655 100.353C632.53 101.078 632.379 101.77 632.203 102.431L632.628 102.544ZM633.373 98.2847C633.44 97.5943 633.486 96.8778 633.511 96.1335L633.071 96.1187C633.046 96.8544 633.001 97.5617 632.935 98.2425L633.373 98.2847ZM633.526 93.9863C633.513 93.2956 633.485 92.5828 633.44 91.8467L633 91.8737C633.045 92.6038 633.073 93.3103 633.086 93.9943L633.526 93.9863ZM633.268 89.7128C633.233 89.3535 633.194 88.9891 633.152 88.6194L632.714 88.6696C632.757 89.037 632.795 89.399 632.83 89.7558L633.268 89.7128ZM633.152 88.6194C633.108 88.2369 633.055 87.8576 632.994 87.4816L632.56 87.552C632.62 87.9213 632.671 88.2939 632.714 88.6696L633.152 88.6194ZM632.528 85.2573C632.337 84.5182 632.114 83.7924 631.859 83.0795L631.444 83.2277C631.695 83.9282 631.914 84.6414 632.102 85.3673L632.528 85.2573ZM630.999 80.9719C630.682 80.2841 630.337 79.6092 629.964 78.947L629.58 79.1632C629.948 79.8152 630.288 80.4793 630.599 81.1557L630.999 80.9719ZM628.77 77.0094C628.35 76.3824 627.905 75.7675 627.437 75.1646L627.089 75.4346C627.551 76.0297 627.99 76.6362 628.404 77.2543L628.77 77.0094ZM625.989 73.4195C625.491 72.8566 624.972 72.3048 624.435 71.7638L624.123 72.074C624.654 72.6092 625.167 73.1549 625.659 73.7112L625.989 73.4195ZM622.79 70.1929C622.234 69.6888 621.662 69.1946 621.074 68.7103L620.794 69.0499C621.376 69.53 621.944 70.0197 622.494 70.519L622.79 70.1929ZM619.296 67.3075C618.696 66.8542 618.083 66.4101 617.458 65.975L617.206 66.3363C617.827 66.7682 618.435 67.209 619.03 67.6588L619.296 67.3075ZM615.573 64.7121C614.943 64.305 614.302 63.9063 613.653 63.516L613.426 63.8933C614.071 64.2813 614.708 64.6775 615.335 65.0819L615.573 64.7121ZM611.692 62.3768C611.036 62.0079 610.372 61.6469 609.702 61.2938L609.496 61.6832C610.163 62.0346 610.824 62.3936 611.477 62.7606L611.692 62.3768ZM607.686 60.2637C607.011 59.9287 606.33 59.6012 605.645 59.2812L605.459 59.6799C606.141 59.9986 606.818 60.3246 607.491 60.6581L607.686 60.2637ZM603.584 58.3448C602.893 58.0394 602.199 57.7414 601.504 57.4505L601.334 57.8566C602.027 58.1464 602.718 58.4433 603.407 58.7474L603.584 58.3448ZM599.408 56.5971C598.704 56.3183 598.001 56.0467 597.297 55.7821L597.142 56.1941C597.843 56.4578 598.545 56.7285 599.245 57.0063L599.408 56.5971ZM595.17 55.0015C594.456 54.7462 593.744 54.4981 593.035 54.2569L592.893 54.6737C593.6 54.9141 594.31 55.1615 595.021 55.416L595.17 55.0015ZM590.89 53.5453C590.164 53.3103 589.442 53.0826 588.726 52.8621L588.596 53.2828C589.31 53.5027 590.03 53.7298 590.754 53.9641L590.89 53.5453ZM586.56 52.2111C585.83 51.9971 585.108 51.7907 584.396 51.5917L584.277 52.0157C584.988 52.2142 585.708 52.4201 586.436 52.6335L586.56 52.2111ZM582.204 50.9949C581.459 50.797 580.726 50.6075 580.008 50.4262L579.9 50.853C580.617 51.0339 581.348 51.2229 582.091 51.4204L582.204 50.9949ZM577.811 49.8857C577.057 49.7051 576.323 49.5341 575.612 49.3724L575.514 49.8017C576.224 49.963 576.956 50.1336 577.708 50.3138L577.811 49.8857ZM573.407 48.8854C572.633 48.7192 571.893 48.5654 571.192 48.4236L571.104 48.8551C571.805 48.9966 572.543 49.15 573.315 49.3158L573.407 48.8854ZM568.961 47.9874C568.137 47.8317 567.391 47.6968 566.732 47.5817L566.656 48.0153C567.313 48.1301 568.058 48.2646 568.88 48.4199L568.961 47.9874ZM564.492 47.2094C564.142 47.1545 563.872 47.1141 563.689 47.0874C563.598 47.0741 563.529 47.0642 563.482 47.0575C563.459 47.0542 563.441 47.0518 563.429 47.0501C563.423 47.0493 563.419 47.0487 563.416 47.0483C563.414 47.0481 563.413 47.0479 563.412 47.0478C563.412 47.0477 563.412 47.0477 563.412 47.0477C563.411 47.0477 563.411 47.0476 563.411 47.0476C563.411 47.0476 563.411 47.0476 563.411 47.0476C563.411 47.0476 563.411 47.0476 563.411 47.0476C563.411 47.0476 563.411 47.0476 563.381 47.2657C563.352 47.4838 563.352 47.4838 563.352 47.4838C563.352 47.4838 563.352 47.4838 563.352 47.4838C563.352 47.4838 563.352 47.4838 563.352 47.4838C563.352 47.4838 563.352 47.4838 563.353 47.4839C563.353 47.484 563.354 47.4841 563.356 47.4843C563.359 47.4847 563.363 47.4853 563.369 47.4861C563.38 47.4877 563.397 47.4902 563.42 47.4934C563.466 47.4999 563.535 47.5097 563.626 47.523C563.807 47.5495 564.075 47.5897 564.424 47.6443L564.492 47.2094Z" fill="#9A54BC"/>
</svg>
