<svg width="70" height="71" viewBox="0 0 70 71" fill="none" xmlns="http://www.w3.org/2000/svg">
<path d="M59.6629 60.1455C66.1944 53.589 69.8559 44.7081 69.8433 35.4538C69.8363 34.8826 69.6047 34.337 69.1983 33.9356C68.7918 33.5339 68.2438 33.309 67.6726 33.309C67.1011 33.309 66.553 33.5339 66.1465 33.9356C65.7401 34.337 65.5085 34.8826 65.5015 35.4538C65.5107 43.5639 62.3003 51.3464 56.5757 57.0913C53.7967 59.9444 50.4744 62.212 46.8046 63.7606C43.1351 65.3088 39.1925 66.1065 35.2096 66.1065C31.2268 66.1065 27.2842 65.3088 23.6146 63.7606C19.945 62.212 16.6227 59.9444 13.8436 57.0913C8.1267 51.3407 4.91782 43.5613 4.91782 35.4525C4.91782 27.3435 8.1267 19.5641 13.8436 13.8134C16.6065 10.9822 19.9039 8.72768 23.5446 7.18046C27.1854 5.63327 31.097 4.82416 35.0528 4.80008C35.8974 4.82653 36.6983 5.18195 37.2847 5.79049C37.8711 6.39901 38.1964 7.21255 38.1914 8.05759C38.1866 8.90262 37.8518 9.7123 37.2584 10.314C36.665 10.9157 35.86 11.2617 35.0151 11.2783C34.9369 11.2785 34.8586 11.2828 34.781 11.2913C28.7626 11.4852 23.0522 13.9981 18.8437 18.3047C14.3992 22.7788 11.9048 28.8292 11.9048 35.1357C11.9048 41.4422 14.3992 47.4925 18.8437 51.9667C21.015 54.1909 23.6092 55.9584 26.4737 57.1651C29.3381 58.3718 32.4151 58.9933 35.5233 58.9933C38.6314 58.9933 41.7085 58.3718 44.573 57.1651C47.4372 55.9584 50.0315 54.1909 52.2028 51.9667C56.6542 47.4973 59.1497 41.4438 59.1408 35.1357C59.15 34.1422 58.9621 33.1563 58.5883 32.2357C58.2141 31.3152 57.6616 30.4778 56.9621 29.772C56.2626 29.0661 55.4304 28.5058 54.5133 28.1234C53.5961 27.7411 52.6125 27.5442 51.6187 27.5442C50.6249 27.5442 49.6412 27.7411 48.7241 28.1234C47.8069 28.5058 46.9747 29.0661 46.2752 29.772C45.5757 30.4778 45.0232 31.3152 44.649 32.2357C44.2752 33.1563 44.0874 34.1422 44.0965 35.1357C44.0965 35.199 44.1007 35.2586 44.1057 35.3194C44.1007 35.3802 44.0965 35.4411 44.0965 35.5032C44.1108 37.2354 43.6099 38.9329 42.6576 40.3803C41.7056 41.8275 40.345 42.9591 38.7486 43.632C37.1523 44.3045 35.3918 44.488 33.6912 44.1588C31.9903 43.8293 30.4257 43.0025 29.1957 41.7825C27.9658 40.5625 27.1259 39.0048 26.7827 37.3067C26.4395 35.6087 26.6085 33.8469 27.2681 32.2452C27.9277 30.6432 29.0484 29.2734 30.4878 28.3094C31.9272 27.3454 33.6206 26.8308 35.3528 26.8307C35.6402 26.8342 35.9253 26.7806 36.1917 26.6731C36.4582 26.5655 36.7005 26.4062 36.9048 26.2043C37.1092 26.0023 37.2717 25.7619 37.3823 25.4967C37.4931 25.2316 37.5502 24.9472 37.5502 24.6599C37.5502 24.3726 37.4931 24.0881 37.3823 23.823C37.2717 23.5579 37.1092 23.3174 36.9048 23.1155C36.7005 22.9135 36.4582 22.7542 36.1917 22.6466C35.9253 22.5391 35.6402 22.4855 35.3528 22.489C32.782 22.5032 30.2728 23.2787 28.1421 24.7174C26.0114 26.1561 24.3545 28.1937 23.3806 30.573C22.4066 32.9523 22.1592 35.5668 22.6695 38.0867C23.1798 40.6065 24.425 42.9185 26.248 44.7316C28.071 46.5443 30.3901 47.7767 32.9128 48.2731C35.4352 48.7692 38.0485 48.5072 40.4223 47.5201C42.7961 46.5329 44.8246 44.865 46.2514 42.7262C47.6783 40.5875 48.4396 38.074 48.4396 35.5032C48.4396 35.4398 48.4354 35.3802 48.4304 35.3194C48.4354 35.2586 48.4396 35.1978 48.4396 35.1357C48.431 34.7127 48.507 34.2924 48.6632 33.8989C48.8191 33.5057 49.0523 33.1474 49.3482 32.8455C49.6444 32.5433 49.9979 32.3032 50.3879 32.1394C50.7779 31.9756 51.197 31.8912 51.6199 31.8912C52.0429 31.8912 52.462 31.9756 52.852 32.1394C53.242 32.3032 53.5955 32.5433 53.8917 32.8455C54.1876 33.1474 54.4208 33.5057 54.5766 33.8989C54.7328 34.2924 54.8089 34.7127 54.8003 35.1357C54.806 40.3002 52.7617 45.2556 49.1163 48.9137C47.3488 50.7296 45.2354 52.1726 42.9009 53.1582C40.5664 54.1437 38.058 54.6513 35.5239 54.6513C32.9901 54.6513 30.4818 54.1437 28.1473 53.1582C25.8127 52.1726 23.6994 50.7296 21.9319 48.9137C18.2914 45.2524 16.2479 40.2989 16.2479 35.1357C16.2479 29.9725 18.2914 25.0191 21.9319 21.3577C23.7008 19.5441 25.8142 18.1024 28.1481 17.1171C30.482 16.1318 32.9892 15.6228 35.5226 15.6201C35.7175 15.6196 35.9114 15.5927 36.0992 15.5403C37.9474 15.2568 39.6255 14.301 40.8123 12.8562C41.999 11.4114 42.6104 9.57928 42.5293 7.71139C42.4482 5.84346 41.68 4.07128 40.3725 2.73479C39.0651 1.39828 37.3103 0.591571 35.4447 0.46941C35.3668 0.460921 35.2882 0.456585 35.2096 0.456421C35.1659 0.456421 35.1225 0.456421 35.0788 0.456421C35.0573 0.456421 35.0364 0.456421 35.0154 0.456421C34.9945 0.456421 34.973 0.458954 34.9521 0.459587C30.4389 0.49508 25.9775 1.42358 21.8249 3.19156C17.6722 4.95953 13.9107 7.53201 10.757 10.7607C4.23632 17.3241 0.576599 26.2004 0.576599 35.4525C0.576599 44.7043 4.23632 53.5805 10.757 60.1439C13.9398 63.4054 17.7429 65.9975 21.9425 67.7668C26.142 69.5365 30.6531 70.4482 35.2103 70.4482C39.7675 70.4482 44.2784 69.5365 48.4782 67.7668C52.6777 65.9975 56.4806 63.4054 59.6635 60.1439L59.6629 60.1455Z" fill="url(#paint0_linear_1_1127)"/>
<defs>
<linearGradient id="paint0_linear_1_1127" x1="10.6203" y1="60.0194" x2="54.6375" y2="16.9429" gradientUnits="userSpaceOnUse">
<stop stop-color="#41287B"/>
<stop offset="0.123" stop-color="#462779"/>
<stop offset="0.284" stop-color="#572775"/>
<stop offset="0.465" stop-color="#72266E"/>
<stop offset="0.663" stop-color="#982565"/>
<stop offset="0.87" stop-color="#C82459"/>
<stop offset="0.99" stop-color="#E72452"/>
</linearGradient>
</defs>
</svg>
