<svg width="71" height="71" viewBox="0 0 71 71" fill="none" xmlns="http://www.w3.org/2000/svg">
<path d="M43.8854 16.6077C34.9655 16.6077 17.0979 9.37677 17.0979 0.456421H16.9658C16.9658 7.59585 19.8019 14.4429 24.8501 19.4913C29.8984 24.5397 36.7452 27.376 43.8847 27.3763C48.1683 27.3763 52.2766 29.078 55.3058 32.107C58.335 35.136 60.0366 39.2443 60.0366 43.5279C60.0376 47.8116 58.3366 51.9206 55.3082 54.9501C52.2797 57.9799 48.1717 59.6822 43.8881 59.6833C39.6041 59.6839 35.4954 57.9829 32.4658 54.9544C29.4361 51.9259 27.7336 47.818 27.7327 43.5343C27.7326 39.9991 27.0362 36.4985 25.6833 33.2325C24.3303 29.9665 22.3473 26.9988 19.8475 24.4992C17.3476 21.9995 14.3799 20.0167 11.1138 18.6639C7.84765 17.3112 4.34702 16.615 0.811829 16.6151V16.7462C9.73049 16.7462 16.9615 34.606 16.9648 43.5276H16.9631C16.9631 48.852 18.5418 54.0567 21.4997 58.4836C24.4576 62.9106 28.6619 66.3611 33.5808 68.3986C38.4997 70.4364 43.9123 70.9698 49.1344 69.931C54.3562 68.8925 59.153 66.3288 62.9181 62.5644C66.6828 58.7996 69.2469 54.0031 70.2861 48.781C71.3252 43.5592 70.7922 38.1466 68.755 33.2275C66.7178 28.3084 63.2677 24.1039 58.8411 21.1456C54.4141 18.1873 49.2094 16.6081 43.8854 16.6077Z" fill="url(#paint0_linear_1_1130)"/>
<defs>
<linearGradient id="paint0_linear_1_1130" x1="56.5953" y1="60.9993" x2="15.9301" y2="5.14587" gradientUnits="userSpaceOnUse">
<stop offset="0.295" stop-color="#E73959"/>
<stop offset="0.384" stop-color="#E73D58"/>
<stop offset="0.477" stop-color="#E74955"/>
<stop offset="0.571" stop-color="#E95E51"/>
<stop offset="0.666" stop-color="#EA7B4B"/>
<stop offset="0.761" stop-color="#EDA044"/>
<stop offset="0.857" stop-color="#EFCE3B"/>
<stop offset="0.868" stop-color="#F0D43A"/>
</linearGradient>
</defs>
</svg>
