<svg width="66" height="66" viewBox="0 0 66 66" fill="none" xmlns="http://www.w3.org/2000/svg">
<path d="M6.82485 29.4563C6.56088 28.4714 6.56085 27.4344 6.82474 26.4495C7.08864 25.4647 7.60716 24.5666 8.32819 23.8456L23.3527 8.82105C24.0737 8.10002 24.9718 7.58151 25.9567 7.31761C26.9416 7.05372 27.9786 7.05375 28.9634 7.31772L43.0227 11.0849C43.169 9.15881 43.8396 7.30947 44.9618 5.73717L28.0284 1.20037C26.813 0.874732 25.5333 0.874738 24.3179 1.20039C23.1025 1.52604 21.9942 2.16587 21.1044 3.05557L2.56304 21.5969C1.67334 22.4867 1.03352 23.595 0.707868 24.8104C0.382215 26.0258 0.382208 27.3056 0.707846 28.521L5.41917 46.1037C6.95932 44.9276 8.79297 44.1971 10.72 43.9922L6.82485 29.4563Z" fill="#18CDCA"/>
<path d="M55.0701 22.4266L59.0954 37.4483C59.3594 38.4334 59.3591 39.4703 59.0954 40.455C58.8313 41.4401 58.3127 42.338 57.5917 43.059L42.5671 58.0839C41.8461 58.8049 40.9482 59.3232 39.9631 59.5873C38.9784 59.851 37.9411 59.851 36.9564 59.5873L22.4205 55.6921C22.2157 57.6193 21.4853 59.4529 20.309 60.9929L37.8918 65.7043C39.1071 66.03 40.3869 66.03 41.6022 65.7043C42.8178 65.3785 43.9259 64.7389 44.8158 63.8491L63.3572 45.3077C64.2471 44.4178 64.8866 43.3097 65.2124 42.0941C65.5381 40.8788 65.5381 39.599 65.2124 38.3837L60.3234 20.1427C58.8158 21.3732 56.998 22.1635 55.0701 22.4266Z" fill="#18CDCA"/>
<path d="M5.8419 48.5286C4.65111 49.7192 3.84018 51.2367 3.51164 52.8881C3.18309 54.5399 3.35171 56.2519 3.99615 57.8078C4.64057 59.3633 5.7319 60.6932 7.13208 61.6289C8.53229 62.5642 10.1784 63.0638 11.8625 63.0638C13.5465 63.0638 15.1927 62.5642 16.5928 61.6289C17.993 60.6932 19.0844 59.3633 19.7288 57.8078C20.3732 56.2519 20.5418 54.5399 20.2133 52.8881C19.8848 51.2367 19.0738 49.7192 17.883 48.5286C16.285 46.9343 14.1198 46.0388 11.8625 46.0388C9.60511 46.0388 7.4399 46.9343 5.8419 48.5286Z" fill="#4F80E1"/>
<path d="M47.5958 5.89557C46.4052 7.08632 45.594 8.60344 45.2657 10.2551C44.9371 11.9067 45.1057 13.6187 45.7501 15.1745C46.3946 16.7303 47.4858 18.0601 48.8859 18.9957C50.2862 19.9313 51.9324 20.4307 53.6162 20.4307C55.3004 20.4307 56.9465 19.9313 58.3469 18.9957C59.747 18.0601 60.8382 16.7303 61.4826 15.1745C62.1271 13.6187 62.2957 11.9067 61.9671 10.2551C61.6388 8.60344 60.8276 7.08632 59.637 5.89557C58.0391 4.30116 55.8737 3.40573 53.6162 3.40573C51.3591 3.40573 49.1936 4.30116 47.5958 5.89557Z" fill="#4F80E1"/>
<path d="M37.9577 56.0221C37.6157 56.0221 37.2755 55.9773 36.9451 55.8888L23.6393 52.3233C23.1957 49.9541 22.0462 47.7742 20.3418 46.0699C18.6374 44.3656 16.4576 43.2159 14.0884 42.7723L10.5232 29.4676C10.3465 28.804 10.347 28.1056 10.5248 27.4422C10.7025 26.7788 11.0513 26.1738 11.5362 25.6874L25.1931 12.0301C25.6789 11.5443 26.284 11.1949 26.9476 11.0171C27.6113 10.8393 28.3101 10.8393 28.9737 11.0172L41.9064 14.4825C42.4194 16.8371 43.6315 18.9818 45.3841 20.6358C47.1367 22.2898 49.348 23.3759 51.7282 23.7518L55.3949 37.4391C55.5715 38.103 55.5711 38.8014 55.3931 39.4646C55.2154 40.1281 54.8667 40.7331 54.3816 41.2196L40.7246 54.8766C40.3622 55.2408 39.9307 55.5299 39.4558 55.7263C38.9809 55.923 38.4717 56.0235 37.9577 56.0221Z" fill="#4F80E1"/>
</svg>
