<svg width="115" height="59" viewBox="0 0 115 59" fill="none" xmlns="http://www.w3.org/2000/svg">
<path d="M24.2195 41.6532C24.7627 41.6532 25.3007 41.5464 25.8025 41.3385C26.3044 41.1307 26.7604 40.826 27.1445 40.4419C27.5286 40.0579 27.8334 39.6019 28.0412 39.1C28.2491 38.5981 28.3561 38.0603 28.3561 37.5171C28.3561 29.8377 31.4068 22.4728 36.8369 17.0426C42.267 11.6124 49.632 8.56181 57.3114 8.56181C64.9907 8.56181 72.3558 11.6124 77.7858 17.0426C83.2161 22.4728 86.2666 29.8377 86.2666 37.5171C86.2774 38.6069 86.718 39.6485 87.4927 40.4153C88.267 41.1821 89.313 41.6124 90.4032 41.6124C91.493 41.6124 92.539 41.1821 93.3133 40.4153C94.088 39.6485 94.5286 38.6069 94.5394 37.5171C94.5394 32.6282 93.5764 27.7872 91.7057 23.2705C89.8346 18.7538 87.0925 14.6498 83.6357 11.1929C80.1784 7.73594 76.0745 4.99375 71.558 3.12288C67.041 1.25199 62.2004 0.289062 57.3114 0.289062C52.4224 0.289062 47.5817 1.25199 43.0648 3.12288C38.5481 4.99375 34.4441 7.73594 30.9872 11.1929C27.5303 14.6498 24.7881 18.7538 22.9172 23.2705C21.0463 27.7872 20.0834 32.6282 20.0834 37.5171C20.0834 38.614 20.5192 39.6661 21.2948 40.4418C22.0705 41.2174 23.1226 41.6532 24.2195 41.6532Z" fill="url(#paint0_linear_1_1146)"/>
<path d="M110.258 49.926H73.8438C76.5399 46.3515 77.996 41.9948 77.9915 37.5171C77.9915 32.0318 75.8123 26.7712 71.9338 22.8925C68.0549 19.0138 62.7943 16.8348 57.309 16.8348C51.8241 16.8348 46.5634 19.0138 42.6845 22.8925C38.8059 26.7712 36.6269 32.0318 36.6269 37.5171C36.6269 38.6142 37.0627 39.6663 37.8385 40.4421C38.6142 41.2179 39.6664 41.6537 40.7635 41.6537C41.8607 41.6537 42.9129 41.2179 43.6884 40.4421C44.4644 39.6663 44.9001 38.6142 44.9001 37.5171C44.9001 35.0627 45.6277 32.6635 46.9913 30.6228C48.3549 28.582 50.2929 26.9914 52.5604 26.0521C54.8279 25.1128 57.323 24.867 59.7301 25.3458C62.1373 25.8245 64.3486 27.0064 66.0839 28.7418C67.8195 30.4773 69.0014 32.6884 69.4805 35.0956C69.9591 37.5028 69.7134 39.9979 68.7743 42.2653C67.8348 44.5328 66.2445 46.4712 64.2037 47.8348C62.1629 49.1984 59.7636 49.926 57.3094 49.926H4.36469C3.81801 49.9207 3.27567 50.0235 2.76903 50.2291C2.26239 50.4344 1.8015 50.7383 1.41299 51.1228C1.02449 51.5077 0.716082 51.9652 0.505609 52.4698C0.295134 52.9745 0.186768 53.5159 0.186768 54.0626C0.186768 54.6089 0.295134 55.1503 0.505609 55.655C0.716082 56.1596 1.02449 56.6172 1.41299 57.002C1.8015 57.3865 2.26239 57.6904 2.76903 57.8957C3.27567 58.1013 3.81801 58.2042 4.36469 58.1988H110.258C111.348 58.188 112.39 57.7474 113.156 56.9727C113.923 56.1984 114.354 55.1524 114.354 54.0626C114.354 52.9724 113.923 51.9264 113.156 51.1521C112.39 50.3774 111.348 49.9368 110.258 49.926Z" fill="url(#paint1_linear_1_1146)"/>
<defs>
<linearGradient id="paint0_linear_1_1146" x1="20.0834" y1="20.9711" x2="94.5394" y2="20.9711" gradientUnits="userSpaceOnUse">
<stop stop-color="#DD1B60"/>
<stop offset="0.243" stop-color="#DE1D5B"/>
<stop offset="0.495" stop-color="#E2254F"/>
<stop offset="0.751" stop-color="#EA313A"/>
<stop offset="1" stop-color="#F4431F"/>
</linearGradient>
<linearGradient id="paint1_linear_1_1146" x1="0.186768" y1="37.5169" x2="114.354" y2="37.5169" gradientUnits="userSpaceOnUse">
<stop stop-color="#DD1B60"/>
<stop offset="0.243" stop-color="#DE1D5B"/>
<stop offset="0.495" stop-color="#E2254F"/>
<stop offset="0.751" stop-color="#EA313A"/>
<stop offset="1" stop-color="#F4431F"/>
</linearGradient>
</defs>
</svg>
