<svg width="203" height="54" viewBox="0 0 203 54" fill="none" xmlns="http://www.w3.org/2000/svg">
<g filter="url(#filter0_d_1_225)">
<mask id="path-1-outside-1_1_225" maskUnits="userSpaceOnUse" x="1" y="1" width="201" height="51" fill="black">
<rect fill="white" x="1" y="1" width="201" height="51"/>
<path d="M25.8015 51.6223C22.4412 51.6223 19.2884 50.9793 16.3429 49.6932C13.439 48.4072 10.8669 46.6233 8.62672 44.3417C6.42802 42.06 4.70639 39.4257 3.46184 36.4388C2.25878 33.4104 1.65725 30.1538 1.65725 26.6691C1.65725 23.2258 2.25878 20.0107 3.46184 17.0238C4.70639 13.9954 6.42802 11.3611 8.62672 9.12091C10.8254 6.83924 13.3768 5.05538 16.2807 3.76935C19.2261 2.44183 22.3997 1.77807 25.8015 1.77807C28.8299 1.77807 31.5472 2.21367 33.9533 3.08485C36.3594 3.91455 38.7033 5.28355 40.985 7.19186C41.3584 7.48226 41.5865 7.81414 41.6695 8.1875C41.794 8.51938 41.794 8.85126 41.6695 9.18314C41.5865 9.51502 41.4413 9.80541 41.2339 10.0543C41.1509 10.5107 40.902 10.884 40.4872 11.1744C40.1138 11.4233 39.6575 11.5478 39.1182 11.5478C38.5789 11.5478 38.0396 11.3404 37.5003 10.9255C35.9238 9.51502 34.223 8.4779 32.3976 7.81414C30.5723 7.10889 28.3736 6.75627 25.8015 6.75627C23.188 6.75627 20.7196 7.29557 18.3964 8.37418C16.1148 9.41131 14.1027 10.8425 12.3604 12.6679C10.618 14.4932 9.249 16.609 8.25336 19.0151C7.2992 21.4212 6.82213 23.9725 6.82213 26.6691C6.82213 29.4486 7.2992 32.0414 8.25336 34.4475C9.249 36.8536 10.618 38.9694 12.3604 40.7947C14.1027 42.62 16.1148 44.0513 18.3964 45.0884C20.7196 46.1255 23.188 46.6441 25.8015 46.6441C28.0002 46.6441 30.0952 46.2707 32.0865 45.524C34.0778 44.7773 35.9861 43.7194 37.8114 42.3504C38.3922 41.894 38.973 41.7074 39.5538 41.7903C40.1761 41.8733 40.6946 42.143 41.1095 42.5993C41.5658 43.0141 41.794 43.5949 41.794 44.3417C41.794 44.715 41.7317 45.0469 41.6073 45.3373C41.4828 45.6277 41.2961 45.9388 41.0472 46.2707C38.89 48.1375 36.5046 49.5065 33.8911 50.3777C31.319 51.2074 28.6225 51.6223 25.8015 51.6223ZM64.348 51.3111C60.9877 51.3111 58.0008 50.5644 55.3873 49.0709C52.8152 47.5775 50.7824 45.524 49.289 42.9104C47.7955 40.2969 47.0488 37.3307 47.0488 34.0119C47.0488 30.6516 47.7955 27.6647 49.289 25.0511C50.7824 22.4376 52.8152 20.3841 55.3873 18.8906C58.0008 17.3972 60.9877 16.6504 64.348 16.6504C67.6668 16.6504 70.6122 17.3972 73.1843 18.8906C75.7564 20.3841 77.7891 22.4376 79.2826 25.0511C80.7761 27.6647 81.5435 30.6516 81.585 34.0119C81.585 37.3307 80.8383 40.2969 79.3448 42.9104C77.8514 45.524 75.7979 47.5775 73.1843 49.0709C70.6122 50.5644 67.6668 51.3111 64.348 51.3111ZM64.348 46.5818C66.6712 46.5818 68.7454 46.0425 70.5708 44.9639C72.3961 43.8438 73.8273 42.3504 74.8645 40.4836C75.9016 38.5752 76.4201 36.418 76.4201 34.0119C76.4201 31.6058 75.9016 29.4486 74.8645 27.5402C73.8273 25.6319 72.3961 24.1385 70.5708 23.0599C68.7454 21.9398 66.6712 21.3797 64.348 21.3797C62.0249 21.3797 59.9299 21.9398 58.063 23.0599C56.2377 24.1385 54.7857 25.6319 53.7071 27.5402C52.67 29.4486 52.1514 31.6058 52.1514 34.0119C52.1514 36.418 52.67 38.5752 53.7071 40.4836C54.7857 42.3504 56.2377 43.8438 58.063 44.9639C59.9299 46.0425 62.0249 46.5818 64.348 46.5818ZM98.4973 51C96.7549 51 95.22 50.5437 93.8925 49.631C92.5649 48.6768 91.5278 47.3701 90.7811 45.7107C90.0343 44.0513 89.661 42.143 89.661 39.9857V5.0139C89.661 4.22569 89.8892 3.60341 90.3455 3.14707C90.8433 2.64926 91.4863 2.40035 92.2745 2.40035C93.0213 2.40035 93.6228 2.64926 94.0791 3.14707C94.577 3.60341 94.8259 4.22569 94.8259 5.0139V39.9857C94.8259 41.6866 95.1577 43.0971 95.8215 44.2172C96.5267 45.2958 97.4187 45.8351 98.4973 45.8351H100.053C100.717 45.8351 101.256 46.084 101.671 46.5818C102.086 47.0382 102.293 47.6397 102.293 48.3864C102.293 49.1747 101.982 49.8177 101.36 50.3155C100.779 50.7718 100.011 51 99.0573 51H98.4973ZM116.424 51C114.682 51 113.147 50.5437 111.819 49.631C110.492 48.6768 109.455 47.3701 108.708 45.7107C107.961 44.0513 107.588 42.143 107.588 39.9857V5.0139C107.588 4.22569 107.816 3.60341 108.272 3.14707C108.77 2.64926 109.413 2.40035 110.201 2.40035C110.948 2.40035 111.55 2.64926 112.006 3.14707C112.504 3.60341 112.753 4.22569 112.753 5.0139V39.9857C112.753 41.6866 113.085 43.0971 113.748 44.2172C114.454 45.2958 115.346 45.8351 116.424 45.8351H117.98C118.644 45.8351 119.183 46.084 119.598 46.5818C120.013 47.0382 120.22 47.6397 120.22 48.3864C120.22 49.1747 119.909 49.8177 119.287 50.3155C118.706 50.7718 117.938 51 116.984 51H116.424ZM139.623 51.3111C136.47 51.3111 133.649 50.5644 131.16 49.0709C128.671 47.536 126.701 45.4618 125.249 42.8482C123.797 40.2346 123.071 37.2892 123.071 34.0119C123.071 30.6931 123.818 27.7269 125.311 25.1134C126.846 22.4998 128.92 20.4463 131.534 18.9529C134.147 17.4179 137.093 16.6504 140.37 16.6504C143.606 16.6504 146.51 17.4179 149.082 18.9529C151.695 20.4463 153.749 22.4998 155.242 25.1134C156.777 27.7269 157.566 30.6931 157.607 34.0119L155.491 35.0698C155.491 38.1397 154.786 40.8984 153.376 43.346C152.007 45.7936 150.119 47.7434 147.713 49.1954C145.348 50.6059 142.652 51.3111 139.623 51.3111ZM140.37 46.5818C142.693 46.5818 144.747 46.0425 146.531 44.9639C148.356 43.8438 149.787 42.3296 150.824 40.4213C151.903 38.513 152.442 36.3765 152.442 34.0119C152.442 31.6058 151.903 29.4693 150.824 27.6025C149.787 25.6942 148.356 24.18 146.531 23.0599C144.747 21.9398 142.693 21.3797 140.37 21.3797C138.088 21.3797 136.014 21.9398 134.147 23.0599C132.322 24.18 130.87 25.6942 129.791 27.6025C128.713 29.4693 128.173 31.6058 128.173 34.0119C128.173 36.3765 128.713 38.513 129.791 40.4213C130.87 42.3296 132.322 43.8438 134.147 44.9639C136.014 46.0425 138.088 46.5818 140.37 46.5818ZM154.931 51C154.185 51 153.542 50.7718 153.002 50.3155C152.504 49.8177 152.255 49.1747 152.255 48.3864V38.1189L153.438 32.7051L157.607 34.0119V48.3864C157.607 49.1747 157.358 49.8177 156.86 50.3155C156.363 50.7718 155.719 51 154.931 51ZM184.102 51.3111C180.867 51.3111 177.963 50.5644 175.39 49.0709C172.818 47.536 170.765 45.4825 169.23 42.9104C167.737 40.2969 166.969 37.3722 166.928 34.1364V5.07613C166.928 4.24643 167.156 3.60341 167.612 3.14707C168.11 2.64926 168.774 2.40035 169.603 2.40035C170.392 2.40035 171.014 2.64926 171.47 3.14707C171.968 3.60341 172.217 4.24643 172.217 5.07613V22.8732C173.586 21.0064 175.37 19.5129 177.568 18.3928C179.767 17.2312 182.215 16.6504 184.911 16.6504C188.064 16.6504 190.885 17.4179 193.374 18.9529C195.863 20.4463 197.813 22.4998 199.224 25.1134C200.676 27.7269 201.402 30.6724 201.402 33.9497C201.402 37.2685 200.634 40.2346 199.099 42.8482C197.606 45.4618 195.552 47.536 192.939 49.0709C190.367 50.5644 187.421 51.3111 184.102 51.3111ZM184.102 46.5818C186.426 46.5818 188.5 46.0218 190.325 44.9017C192.192 43.7816 193.644 42.2882 194.681 40.4213C195.76 38.513 196.299 36.3558 196.299 33.9497C196.299 31.585 195.76 29.4486 194.681 27.5402C193.644 25.6319 192.192 24.1385 190.325 23.0599C188.5 21.9398 186.426 21.3797 184.102 21.3797C181.862 21.3797 179.809 21.9398 177.942 23.0599C176.116 24.1385 174.685 25.6319 173.648 27.5402C172.611 29.4486 172.092 31.585 172.092 33.9497C172.092 36.3558 172.611 38.513 173.648 40.4213C174.685 42.2882 176.116 43.7816 177.942 44.9017C179.809 46.0218 181.862 46.5818 184.102 46.5818Z"/>
</mask>
<path d="M25.8015 51.6223C22.4412 51.6223 19.2884 50.9793 16.3429 49.6932C13.439 48.4072 10.8669 46.6233 8.62672 44.3417C6.42802 42.06 4.70639 39.4257 3.46184 36.4388C2.25878 33.4104 1.65725 30.1538 1.65725 26.6691C1.65725 23.2258 2.25878 20.0107 3.46184 17.0238C4.70639 13.9954 6.42802 11.3611 8.62672 9.12091C10.8254 6.83924 13.3768 5.05538 16.2807 3.76935C19.2261 2.44183 22.3997 1.77807 25.8015 1.77807C28.8299 1.77807 31.5472 2.21367 33.9533 3.08485C36.3594 3.91455 38.7033 5.28355 40.985 7.19186C41.3584 7.48226 41.5865 7.81414 41.6695 8.1875C41.794 8.51938 41.794 8.85126 41.6695 9.18314C41.5865 9.51502 41.4413 9.80541 41.2339 10.0543C41.1509 10.5107 40.902 10.884 40.4872 11.1744C40.1138 11.4233 39.6575 11.5478 39.1182 11.5478C38.5789 11.5478 38.0396 11.3404 37.5003 10.9255C35.9238 9.51502 34.223 8.4779 32.3976 7.81414C30.5723 7.10889 28.3736 6.75627 25.8015 6.75627C23.188 6.75627 20.7196 7.29557 18.3964 8.37418C16.1148 9.41131 14.1027 10.8425 12.3604 12.6679C10.618 14.4932 9.249 16.609 8.25336 19.0151C7.2992 21.4212 6.82213 23.9725 6.82213 26.6691C6.82213 29.4486 7.2992 32.0414 8.25336 34.4475C9.249 36.8536 10.618 38.9694 12.3604 40.7947C14.1027 42.62 16.1148 44.0513 18.3964 45.0884C20.7196 46.1255 23.188 46.6441 25.8015 46.6441C28.0002 46.6441 30.0952 46.2707 32.0865 45.524C34.0778 44.7773 35.9861 43.7194 37.8114 42.3504C38.3922 41.894 38.973 41.7074 39.5538 41.7903C40.1761 41.8733 40.6946 42.143 41.1095 42.5993C41.5658 43.0141 41.794 43.5949 41.794 44.3417C41.794 44.715 41.7317 45.0469 41.6073 45.3373C41.4828 45.6277 41.2961 45.9388 41.0472 46.2707C38.89 48.1375 36.5046 49.5065 33.8911 50.3777C31.319 51.2074 28.6225 51.6223 25.8015 51.6223ZM64.348 51.3111C60.9877 51.3111 58.0008 50.5644 55.3873 49.0709C52.8152 47.5775 50.7824 45.524 49.289 42.9104C47.7955 40.2969 47.0488 37.3307 47.0488 34.0119C47.0488 30.6516 47.7955 27.6647 49.289 25.0511C50.7824 22.4376 52.8152 20.3841 55.3873 18.8906C58.0008 17.3972 60.9877 16.6504 64.348 16.6504C67.6668 16.6504 70.6122 17.3972 73.1843 18.8906C75.7564 20.3841 77.7891 22.4376 79.2826 25.0511C80.7761 27.6647 81.5435 30.6516 81.585 34.0119C81.585 37.3307 80.8383 40.2969 79.3448 42.9104C77.8514 45.524 75.7979 47.5775 73.1843 49.0709C70.6122 50.5644 67.6668 51.3111 64.348 51.3111ZM64.348 46.5818C66.6712 46.5818 68.7454 46.0425 70.5708 44.9639C72.3961 43.8438 73.8273 42.3504 74.8645 40.4836C75.9016 38.5752 76.4201 36.418 76.4201 34.0119C76.4201 31.6058 75.9016 29.4486 74.8645 27.5402C73.8273 25.6319 72.3961 24.1385 70.5708 23.0599C68.7454 21.9398 66.6712 21.3797 64.348 21.3797C62.0249 21.3797 59.9299 21.9398 58.063 23.0599C56.2377 24.1385 54.7857 25.6319 53.7071 27.5402C52.67 29.4486 52.1514 31.6058 52.1514 34.0119C52.1514 36.418 52.67 38.5752 53.7071 40.4836C54.7857 42.3504 56.2377 43.8438 58.063 44.9639C59.9299 46.0425 62.0249 46.5818 64.348 46.5818ZM98.4973 51C96.7549 51 95.22 50.5437 93.8925 49.631C92.5649 48.6768 91.5278 47.3701 90.7811 45.7107C90.0343 44.0513 89.661 42.143 89.661 39.9857V5.0139C89.661 4.22569 89.8892 3.60341 90.3455 3.14707C90.8433 2.64926 91.4863 2.40035 92.2745 2.40035C93.0213 2.40035 93.6228 2.64926 94.0791 3.14707C94.577 3.60341 94.8259 4.22569 94.8259 5.0139V39.9857C94.8259 41.6866 95.1577 43.0971 95.8215 44.2172C96.5267 45.2958 97.4187 45.8351 98.4973 45.8351H100.053C100.717 45.8351 101.256 46.084 101.671 46.5818C102.086 47.0382 102.293 47.6397 102.293 48.3864C102.293 49.1747 101.982 49.8177 101.36 50.3155C100.779 50.7718 100.011 51 99.0573 51H98.4973ZM116.424 51C114.682 51 113.147 50.5437 111.819 49.631C110.492 48.6768 109.455 47.3701 108.708 45.7107C107.961 44.0513 107.588 42.143 107.588 39.9857V5.0139C107.588 4.22569 107.816 3.60341 108.272 3.14707C108.77 2.64926 109.413 2.40035 110.201 2.40035C110.948 2.40035 111.55 2.64926 112.006 3.14707C112.504 3.60341 112.753 4.22569 112.753 5.0139V39.9857C112.753 41.6866 113.085 43.0971 113.748 44.2172C114.454 45.2958 115.346 45.8351 116.424 45.8351H117.98C118.644 45.8351 119.183 46.084 119.598 46.5818C120.013 47.0382 120.22 47.6397 120.22 48.3864C120.22 49.1747 119.909 49.8177 119.287 50.3155C118.706 50.7718 117.938 51 116.984 51H116.424ZM139.623 51.3111C136.47 51.3111 133.649 50.5644 131.16 49.0709C128.671 47.536 126.701 45.4618 125.249 42.8482C123.797 40.2346 123.071 37.2892 123.071 34.0119C123.071 30.6931 123.818 27.7269 125.311 25.1134C126.846 22.4998 128.92 20.4463 131.534 18.9529C134.147 17.4179 137.093 16.6504 140.37 16.6504C143.606 16.6504 146.51 17.4179 149.082 18.9529C151.695 20.4463 153.749 22.4998 155.242 25.1134C156.777 27.7269 157.566 30.6931 157.607 34.0119L155.491 35.0698C155.491 38.1397 154.786 40.8984 153.376 43.346C152.007 45.7936 150.119 47.7434 147.713 49.1954C145.348 50.6059 142.652 51.3111 139.623 51.3111ZM140.37 46.5818C142.693 46.5818 144.747 46.0425 146.531 44.9639C148.356 43.8438 149.787 42.3296 150.824 40.4213C151.903 38.513 152.442 36.3765 152.442 34.0119C152.442 31.6058 151.903 29.4693 150.824 27.6025C149.787 25.6942 148.356 24.18 146.531 23.0599C144.747 21.9398 142.693 21.3797 140.37 21.3797C138.088 21.3797 136.014 21.9398 134.147 23.0599C132.322 24.18 130.87 25.6942 129.791 27.6025C128.713 29.4693 128.173 31.6058 128.173 34.0119C128.173 36.3765 128.713 38.513 129.791 40.4213C130.87 42.3296 132.322 43.8438 134.147 44.9639C136.014 46.0425 138.088 46.5818 140.37 46.5818ZM154.931 51C154.185 51 153.542 50.7718 153.002 50.3155C152.504 49.8177 152.255 49.1747 152.255 48.3864V38.1189L153.438 32.7051L157.607 34.0119V48.3864C157.607 49.1747 157.358 49.8177 156.86 50.3155C156.363 50.7718 155.719 51 154.931 51ZM184.102 51.3111C180.867 51.3111 177.963 50.5644 175.39 49.0709C172.818 47.536 170.765 45.4825 169.23 42.9104C167.737 40.2969 166.969 37.3722 166.928 34.1364V5.07613C166.928 4.24643 167.156 3.60341 167.612 3.14707C168.11 2.64926 168.774 2.40035 169.603 2.40035C170.392 2.40035 171.014 2.64926 171.47 3.14707C171.968 3.60341 172.217 4.24643 172.217 5.07613V22.8732C173.586 21.0064 175.37 19.5129 177.568 18.3928C179.767 17.2312 182.215 16.6504 184.911 16.6504C188.064 16.6504 190.885 17.4179 193.374 18.9529C195.863 20.4463 197.813 22.4998 199.224 25.1134C200.676 27.7269 201.402 30.6724 201.402 33.9497C201.402 37.2685 200.634 40.2346 199.099 42.8482C197.606 45.4618 195.552 47.536 192.939 49.0709C190.367 50.5644 187.421 51.3111 184.102 51.3111ZM184.102 46.5818C186.426 46.5818 188.5 46.0218 190.325 44.9017C192.192 43.7816 193.644 42.2882 194.681 40.4213C195.76 38.513 196.299 36.3558 196.299 33.9497C196.299 31.585 195.76 29.4486 194.681 27.5402C193.644 25.6319 192.192 24.1385 190.325 23.0599C188.5 21.9398 186.426 21.3797 184.102 21.3797C181.862 21.3797 179.809 21.9398 177.942 23.0599C176.116 24.1385 174.685 25.6319 173.648 27.5402C172.611 29.4486 172.092 31.585 172.092 33.9497C172.092 36.3558 172.611 38.513 173.648 40.4213C174.685 42.2882 176.116 43.7816 177.942 44.9017C179.809 46.0218 181.862 46.5818 184.102 46.5818Z" fill="#9A54BC"/>
<path d="M16.3429 49.6932L16.2268 49.9554L16.2282 49.956L16.3429 49.6932ZM8.62672 44.3417L8.42028 44.5406L8.42216 44.5425L8.62672 44.3417ZM3.46184 36.4388L3.19537 36.5446L3.19721 36.549L3.46184 36.4388ZM3.46184 17.0238L3.19667 16.9148L3.19592 16.9167L3.46184 17.0238ZM8.62672 9.12091L8.83133 9.32173L8.83316 9.31984L8.62672 9.12091ZM16.2807 3.76935L16.3968 4.03148L16.3985 4.03071L16.2807 3.76935ZM33.9533 3.08485L33.8557 3.35444L33.8598 3.35587L33.9533 3.08485ZM40.985 7.19186L40.801 7.41191L40.809 7.41815L40.985 7.19186ZM41.6695 8.1875L41.3897 8.24969L41.394 8.26933L41.4011 8.28816L41.6695 8.1875ZM41.6695 9.18314L41.4011 9.08248L41.3953 9.09777L41.3914 9.11361L41.6695 9.18314ZM41.2339 10.0543L41.0137 9.87079L40.9654 9.92878L40.9519 10.003L41.2339 10.0543ZM40.4872 11.1744L40.6463 11.413L40.6516 11.4093L40.4872 11.1744ZM37.5003 10.9255L37.3091 11.1392L37.317 11.1463L37.3255 11.1527L37.5003 10.9255ZM32.3976 7.81414L32.2943 8.08161L32.2996 8.08356L32.3976 7.81414ZM18.3964 8.37418L18.5151 8.63518L18.5172 8.63421L18.3964 8.37418ZM12.3604 12.6679L12.153 12.4699L12.3604 12.6679ZM8.25336 19.0151L7.98843 18.9055L7.98686 18.9094L8.25336 19.0151ZM8.25336 34.4475L7.98683 34.5532L7.98846 34.5571L8.25336 34.4475ZM12.3604 40.7947L12.5677 40.5967L12.3604 40.7947ZM18.3964 45.0884L18.2778 45.3494L18.2796 45.3502L18.3964 45.0884ZM32.0865 45.524L32.1871 45.7924L32.0865 45.524ZM37.8114 42.3504L37.9835 42.5798L37.9885 42.5758L37.8114 42.3504ZM39.5538 41.7903L39.5132 42.0742L39.5159 42.0745L39.5538 41.7903ZM41.1095 42.5993L40.8973 42.7921L40.9065 42.8022L40.9166 42.8114L41.1095 42.5993ZM41.6073 45.3373L41.8708 45.4502L41.6073 45.3373ZM41.0472 46.2707L41.2348 46.4875L41.2581 46.4674L41.2766 46.4427L41.0472 46.2707ZM33.8911 50.3777L33.9791 50.6506L33.9817 50.6497L33.8911 50.3777ZM25.8015 51.3356C22.4789 51.3356 19.3653 50.7 16.4576 49.4305L16.2282 49.956C19.2115 51.2585 22.4036 51.909 25.8015 51.909V51.3356ZM16.459 49.4311C13.5884 48.1598 11.0463 46.3968 8.83129 44.1408L8.42216 44.5425C10.6875 46.8498 13.2896 48.6546 16.2268 49.9554L16.459 49.4311ZM8.83316 44.1427C6.65973 41.8873 4.95761 39.2832 3.72648 36.3285L3.19721 36.549C4.45518 39.5682 6.19631 42.2327 8.42029 44.5406L8.83316 44.1427ZM3.72827 36.3329C2.5395 33.3405 1.94393 30.1201 1.94393 26.6691H1.37056C1.37056 30.1875 1.97806 33.4802 3.19541 36.5446L3.72827 36.3329ZM1.94393 26.6691C1.94393 23.2599 2.53934 20.0815 3.72777 17.1309L3.19592 16.9167C1.97821 19.94 1.37056 23.1917 1.37056 26.6691H1.94393ZM3.72701 17.1328C4.95811 14.1371 6.65966 11.5344 8.83133 9.32173L8.42212 8.9201C6.19638 11.1878 4.45468 13.8537 3.19668 16.9148L3.72701 17.1328ZM8.83316 9.31984C11.0061 7.06495 13.5267 5.30253 16.3968 4.03148L16.1646 3.50722C13.2268 4.80824 10.6448 6.61353 8.42029 8.92198L8.83316 9.31984ZM16.3985 4.03071C19.305 2.72077 22.4382 2.06476 25.8015 2.06476V1.49139C22.3613 1.49139 19.1473 2.1629 16.1629 3.50798L16.3985 4.03071ZM25.8015 2.06476C28.8026 2.06476 31.486 2.49642 33.8557 3.35441L34.0509 2.81529C31.6083 1.93091 28.8572 1.49139 25.8015 1.49139V2.06476ZM33.8598 3.35587C36.2279 4.17244 38.5418 5.52215 40.8011 7.41177L41.1689 6.97195C38.8649 5.04495 36.491 3.65665 34.0468 2.81382L33.8598 3.35587ZM40.809 7.41815C41.1426 7.67759 41.3243 7.95574 41.3897 8.24969L41.9494 8.12531C41.8488 7.67253 41.5742 7.28692 41.161 6.96556L40.809 7.41815ZM41.4011 8.28816C41.5012 8.55514 41.5012 8.8155 41.4011 9.08248L41.9379 9.2838C42.0867 8.88702 42.0867 8.48362 41.9379 8.08684L41.4011 8.28816ZM41.3914 9.11361C41.3183 9.40601 41.1919 9.65689 41.0137 9.87079L41.4542 10.2379C41.6908 9.95394 41.8548 9.62403 41.9476 9.25267L41.3914 9.11361ZM40.9519 10.003C40.8837 10.3779 40.682 10.6881 40.3228 10.9396L40.6516 11.4093C41.1221 11.0799 41.4182 10.6434 41.516 10.1056L40.9519 10.003ZM40.3282 10.9359C40.0107 11.1475 39.6125 11.2611 39.1182 11.2611V11.8345C39.7025 11.8345 40.217 11.6991 40.6462 11.413L40.3282 10.9359ZM39.1182 11.2611C38.6571 11.2611 38.1776 11.0848 37.6751 10.6983L37.3255 11.1527C37.9016 11.5959 38.5007 11.8345 39.1182 11.8345V11.2611ZM37.6914 10.7119C36.0902 9.27919 34.3582 8.22203 32.4956 7.54471L32.2996 8.08356C34.0877 8.73377 35.7575 9.75085 37.3091 11.1392L37.6914 10.7119ZM32.5009 7.54672C30.6341 6.82543 28.3984 6.46958 25.8015 6.46958V7.04295C28.3488 7.04295 30.5105 7.39235 32.2943 8.08156L32.5009 7.54672ZM25.8015 6.46958C23.1471 6.46958 20.6375 7.01762 18.2757 8.11416L18.5172 8.63421C20.8017 7.57353 23.2288 7.04295 25.8015 7.04295V6.46958ZM18.2778 8.11319C15.9626 9.16558 13.9205 10.6183 12.153 12.4699L12.5677 12.8658C14.285 11.0668 16.267 9.65704 18.5151 8.63517L18.2778 8.11319ZM12.153 12.4699C10.3854 14.3217 8.99721 16.4677 7.98846 18.9055L8.51826 19.1247C9.50079 16.7502 10.8506 14.6647 12.5677 12.8658L12.153 12.4699ZM7.98686 18.9094C7.01881 21.3506 6.53544 23.9379 6.53544 26.6691H7.10881C7.10881 24.0072 7.57959 21.4919 8.51985 19.1208L7.98686 18.9094ZM6.53544 26.6691C6.53544 29.482 7.01841 32.111 7.98686 34.5532L8.51985 34.3418C7.58 31.9717 7.10881 29.4151 7.10881 26.6691H6.53544ZM7.98846 34.5571C8.99721 36.9949 10.3854 39.1409 12.153 40.9926L12.5677 40.5967C10.8506 38.7979 9.50079 36.7123 8.51826 34.3379L7.98846 34.5571ZM12.153 40.9926C13.9205 42.8443 15.9626 44.297 18.2778 45.3494L18.5151 44.8274C16.267 43.8055 14.285 42.3958 12.5677 40.5967L12.153 40.9926ZM18.2796 45.3502C20.6405 46.4042 23.1488 46.9308 25.8015 46.9308V46.3574C23.2271 46.3574 20.7987 45.8469 18.5133 44.8266L18.2796 45.3502ZM25.8015 46.9308C28.0334 46.9308 30.1626 46.5516 32.1871 45.7924L31.9858 45.2556C30.0278 45.9898 27.967 46.3574 25.8015 46.3574V46.9308ZM32.1871 45.7924C34.2057 45.0354 36.1379 43.9639 37.9834 42.5797L37.6394 42.121C35.8343 43.4749 33.9498 44.5191 31.9858 45.2556L32.1871 45.7924ZM37.9885 42.5758C38.5247 42.1545 39.0289 42.0049 39.5132 42.0741L39.5943 41.5065C38.9171 41.4098 38.2597 41.6336 37.6343 42.125L37.9885 42.5758ZM39.5159 42.0745C40.0724 42.1487 40.5289 42.3868 40.8973 42.7921L41.3216 42.4064C40.8604 41.8991 40.2797 41.5979 39.5917 41.5062L39.5159 42.0745ZM40.9166 42.8114C41.3008 43.1607 41.5073 43.6572 41.5073 44.3417H42.0806C42.0806 43.5326 41.8308 42.8676 41.3023 42.3872L40.9166 42.8114ZM41.5073 44.3417C41.5073 44.6832 41.4504 44.9755 41.3438 45.2244L41.8708 45.4502C42.0131 45.1183 42.0806 44.7469 42.0806 44.3417H41.5073ZM41.3438 45.2244C41.2306 45.4884 41.0571 45.7798 40.8179 46.0987L41.2766 46.4427C41.5352 46.0979 41.735 45.767 41.8708 45.4502L41.3438 45.2244ZM40.8596 46.0539C38.7298 47.8971 36.3771 49.2469 33.8004 50.1058L33.9817 50.6497C36.6322 49.7662 39.0503 48.378 41.2348 46.4875L40.8596 46.0539ZM33.8031 50.1049C31.2607 50.925 28.5939 51.3356 25.8015 51.3356V51.909C28.651 51.909 31.3774 51.4898 33.9791 50.6506L33.8031 50.1049ZM55.3873 49.0709L55.2433 49.3189L55.245 49.3199L55.3873 49.0709ZM49.289 42.9104L49.5379 42.7682L49.289 42.9104ZM49.289 25.0511L49.0401 24.9089L49.289 25.0511ZM55.3873 18.8906L55.245 18.6417L55.2433 18.6427L55.3873 18.8906ZM79.2826 25.0511L79.5315 24.9089L79.2826 25.0511ZM81.585 34.0119H81.8717L81.8717 34.0084L81.585 34.0119ZM79.3448 42.9104L79.0959 42.7682L79.3448 42.9104ZM73.1843 49.0709L73.0421 48.822L73.0404 48.823L73.1843 49.0709ZM70.5708 44.9639L70.7166 45.2108L70.7207 45.2083L70.5708 44.9639ZM74.8645 40.4836L75.1151 40.6228L75.1163 40.6205L74.8645 40.4836ZM74.8645 27.5402L74.6126 27.6771L74.8645 27.5402ZM70.5708 23.0599L70.4208 23.3042L70.4249 23.3067L70.5708 23.0599ZM58.063 23.0599L58.2089 23.3067L58.2105 23.3057L58.063 23.0599ZM53.7071 27.5402L53.4575 27.3992L53.4552 27.4034L53.7071 27.5402ZM53.7071 40.4836L53.4551 40.6205L53.4589 40.627L53.7071 40.4836ZM58.063 44.9639L57.913 45.2084L57.9196 45.2122L58.063 44.9639ZM64.348 51.0245C61.0317 51.0245 58.0949 50.288 55.5295 48.822L55.245 49.3199C57.9068 50.8409 60.9438 51.5978 64.348 51.5978V51.0245ZM55.5312 48.823C53.0034 47.3553 51.0066 45.3384 49.5379 42.7682L49.0401 43.0527C50.5583 45.7095 52.627 47.7997 55.2433 49.3189L55.5312 48.823ZM49.5379 42.7682C48.0717 40.2023 47.3355 37.2861 47.3355 34.0119H46.7621C46.7621 37.3753 47.5194 40.3915 49.0401 43.0527L49.5379 42.7682ZM47.3355 34.0119C47.3355 30.6956 48.072 27.7587 49.5379 25.1934L49.0401 24.9089C47.5191 27.5707 46.7621 30.6077 46.7621 34.0119H47.3355ZM49.5379 25.1934C51.0066 22.6231 53.0034 20.6063 55.5312 19.1385L55.2433 18.6427C52.627 20.1618 50.5583 22.2521 49.0401 24.9089L49.5379 25.1934ZM55.5295 19.1395C58.0949 17.6736 61.0317 16.9371 64.348 16.9371V16.3638C60.9438 16.3638 57.9068 17.1207 55.245 18.6417L55.5295 19.1395ZM64.348 16.9371C67.6222 16.9371 70.5169 17.6733 73.0404 19.1385L73.3283 18.6427C70.7076 17.121 67.7114 16.3638 64.348 16.3638V16.9371ZM73.0404 19.1385C75.5682 20.6063 77.565 22.6231 79.0337 25.1934L79.5315 24.9089C78.0133 22.2521 75.9446 20.1618 73.3283 18.6427L73.0404 19.1385ZM79.0337 25.1934C80.5003 27.7599 81.2574 30.6981 81.2984 34.0154L81.8717 34.0084C81.8297 30.6052 81.0518 27.5695 79.5315 24.9089L79.0337 25.1934ZM81.2983 34.0119C81.2983 37.2861 80.5621 40.2023 79.0959 42.7682L79.5938 43.0527C81.1144 40.3915 81.8717 37.3753 81.8717 34.0119H81.2983ZM79.0959 42.7682C77.6279 45.3373 75.6112 47.354 73.0421 48.822L73.3266 49.3199C75.9846 47.801 78.0749 45.7107 79.5938 43.0527L79.0959 42.7682ZM73.0404 48.823C70.5169 50.2882 67.6222 51.0245 64.348 51.0245V51.5978C67.7114 51.5978 70.7076 50.8406 73.3283 49.3189L73.0404 48.823ZM64.348 46.8685C66.7174 46.8685 68.8429 46.3179 70.7166 45.2108L70.4249 44.7171C68.6479 45.7672 66.6249 46.2952 64.348 46.2952V46.8685ZM70.7207 45.2083C72.588 44.0625 74.0539 42.5329 75.1151 40.6228L74.6138 40.3443C73.6007 42.1679 72.2042 43.6252 70.4208 44.7196L70.7207 45.2083ZM75.1163 40.6205C76.1787 38.6657 76.7068 36.4606 76.7068 34.0119H76.1335C76.1335 36.3755 75.6245 38.4848 74.6126 40.3467L75.1163 40.6205ZM76.7068 34.0119C76.7068 31.5632 76.1787 29.3581 75.1163 27.4033L74.6126 27.6771C75.6245 29.539 76.1335 31.6483 76.1335 34.0119H76.7068ZM75.1163 27.4034C74.0551 25.4507 72.5877 23.9187 70.7166 22.8131L70.4249 23.3067C72.2045 24.3582 73.5996 25.8132 74.6126 27.6771L75.1163 27.4034ZM70.7207 22.8155C68.8464 21.6654 66.7195 21.093 64.348 21.093V21.6664C66.6229 21.6664 68.6444 22.2141 70.4208 23.3042L70.7207 22.8155ZM64.348 21.093C61.9765 21.093 59.8299 21.6654 57.9155 22.814L58.2105 23.3057C60.0298 22.2141 62.0732 21.6664 64.348 21.6664V21.093ZM57.9172 22.8131C56.0471 23.9181 54.56 25.4487 53.4575 27.3992L53.9567 27.6813C55.0115 25.8152 56.4283 24.3588 58.2089 23.3067L57.9172 22.8131ZM53.4552 27.4034C52.3929 29.3581 51.8647 31.5632 51.8647 34.0119H52.4381C52.4381 31.6483 52.9471 29.539 53.959 27.6771L53.4552 27.4034ZM51.8647 34.0119C51.8647 36.4606 52.3929 38.6657 53.4552 40.6205L53.959 40.3467C52.9471 38.4848 52.4381 36.3755 52.4381 34.0119H51.8647ZM53.4589 40.627C54.5612 42.5348 56.0468 44.0631 57.9131 45.2083L58.213 44.7196C56.4286 43.6246 55.0103 42.166 53.9553 40.3401L53.4589 40.627ZM57.9196 45.2122C59.8334 46.3179 61.9785 46.8685 64.348 46.8685V46.2952C62.0712 46.2952 60.0263 45.7672 58.2065 44.7157L57.9196 45.2122ZM93.8925 49.631L93.7251 49.8638L93.73 49.8672L93.8925 49.631ZM90.7811 45.7107L91.0425 45.593L90.7811 45.7107ZM90.3455 3.14707L90.1428 2.94436V2.94436L90.3455 3.14707ZM94.0791 3.14707L93.8678 3.3408L93.8762 3.34998L93.8854 3.35841L94.0791 3.14707ZM95.8215 44.2172L95.5746 44.3635L95.5816 44.3741L95.8215 44.2172ZM101.671 46.5818L101.45 46.7656L101.459 46.7747L101.671 46.5818ZM101.36 50.3155L101.537 50.5409L101.539 50.5394L101.36 50.3155ZM98.4973 50.7133C96.8079 50.7133 95.3307 50.2719 94.0549 49.3948L93.73 49.8672C95.1093 50.8155 96.7019 51.2867 98.4973 51.2867V50.7133ZM94.0598 49.3982C92.7777 48.4767 91.7709 47.2118 91.0425 45.593L90.5196 45.8283C91.2847 47.5284 92.3522 48.877 93.7251 49.8638L94.0598 49.3982ZM91.0425 45.593C90.3152 43.9768 89.9477 42.1098 89.9477 39.9857H89.3743C89.3743 42.1761 89.7535 44.1257 90.5196 45.8283L91.0425 45.593ZM89.9477 39.9857V5.0139H89.3743V39.9857H89.9477ZM89.9477 5.0139C89.9477 4.28381 90.1571 3.7409 90.5482 3.34979L90.1428 2.94436C89.6212 3.46592 89.3743 4.16757 89.3743 5.0139H89.9477ZM90.5482 3.34979C90.9856 2.91238 91.5524 2.68703 92.2745 2.68703V2.11366C91.4202 2.11366 90.701 2.38613 90.1428 2.94436L90.5482 3.34979ZM92.2745 2.68703C92.9504 2.68703 93.4718 2.90884 93.8678 3.3408L94.2905 2.95335C93.7738 2.38967 93.0922 2.11366 92.2745 2.11366V2.68703ZM93.8854 3.35841C94.314 3.75124 94.5392 4.29134 94.5392 5.0139H95.1125C95.1125 4.16003 94.84 3.45558 94.2729 2.93574L93.8854 3.35841ZM94.5392 5.0139V39.9857H95.1125V5.0139H94.5392ZM94.5392 39.9857C94.5392 41.7227 94.878 43.1874 95.5749 44.3634L96.0681 44.0711C95.4375 43.0068 95.1125 41.6506 95.1125 39.9857H94.5392ZM95.5816 44.3741C96.3278 45.5155 97.302 46.1218 98.4973 46.1218V45.5484C97.5354 45.5484 96.7257 45.0762 96.0614 44.0603L95.5816 44.3741ZM98.4973 46.1218H100.053V45.5484H98.4973V46.1218ZM100.053 46.1218C100.634 46.1218 101.092 46.3347 101.451 46.7654L101.891 46.3983C101.42 45.8333 100.799 45.5484 100.053 45.5484V46.1218ZM101.459 46.7747C101.816 47.1676 102.006 47.6952 102.006 48.3864H102.58C102.58 47.5842 102.356 46.9087 101.883 46.389L101.459 46.7747ZM102.006 48.3864C102.006 49.0865 101.736 49.6475 101.181 50.0916L101.539 50.5394C102.228 49.9878 102.58 49.2629 102.58 48.3864H102.006ZM101.183 50.0901C100.665 50.4964 99.9662 50.7133 99.0573 50.7133V51.2867C100.057 51.2867 100.892 51.0472 101.537 50.5409L101.183 50.0901ZM99.0573 50.7133H98.4973V51.2867H99.0573V50.7133ZM111.819 49.631L111.652 49.8638L111.657 49.8672L111.819 49.631ZM108.708 45.7107L108.969 45.593L108.708 45.7107ZM108.272 3.14707L108.07 2.94436V2.94436L108.272 3.14707ZM112.006 3.14707L111.795 3.3408L111.803 3.34998L111.812 3.35841L112.006 3.14707ZM113.748 44.2172L113.501 44.3635L113.508 44.3741L113.748 44.2172ZM119.598 46.5818L119.377 46.7656L119.386 46.7747L119.598 46.5818ZM119.287 50.3155L119.464 50.5409L119.466 50.5394L119.287 50.3155ZM116.424 50.7133C114.735 50.7133 113.258 50.2719 111.982 49.3948L111.657 49.8672C113.036 50.8155 114.629 51.2867 116.424 51.2867V50.7133ZM111.987 49.3982C110.705 48.4767 109.698 47.2118 108.969 45.593L108.447 45.8283C109.212 47.5284 110.279 48.877 111.652 49.8638L111.987 49.3982ZM108.969 45.593C108.242 43.9768 107.875 42.1098 107.875 39.9857H107.301C107.301 42.1761 107.68 44.1257 108.447 45.8283L108.969 45.593ZM107.875 39.9857V5.0139H107.301V39.9857H107.875ZM107.875 5.0139C107.875 4.28381 108.084 3.7409 108.475 3.34979L108.07 2.94436C107.548 3.46592 107.301 4.16757 107.301 5.0139H107.875ZM108.475 3.34979C108.912 2.91238 109.479 2.68703 110.201 2.68703V2.11366C109.347 2.11366 108.628 2.38613 108.07 2.94436L108.475 3.34979ZM110.201 2.68703C110.877 2.68703 111.399 2.90884 111.795 3.3408L112.217 2.95335C111.701 2.38967 111.019 2.11366 110.201 2.11366V2.68703ZM111.812 3.35841C112.241 3.75124 112.466 4.29134 112.466 5.0139H113.039C113.039 4.16003 112.767 3.45558 112.2 2.93574L111.812 3.35841ZM112.466 5.0139V39.9857H113.039V5.0139H112.466ZM112.466 39.9857C112.466 41.7227 112.805 43.1874 113.502 44.3634L113.995 44.0711C113.364 43.0068 113.039 41.6506 113.039 39.9857H112.466ZM113.508 44.3741C114.255 45.5155 115.229 46.1218 116.424 46.1218V45.5484C115.462 45.5484 114.653 45.0762 113.988 44.0603L113.508 44.3741ZM116.424 46.1218H117.98V45.5484H116.424V46.1218ZM117.98 46.1218C118.561 46.1218 119.019 46.3347 119.378 46.7654L119.818 46.3983C119.347 45.8333 118.726 45.5484 117.98 45.5484V46.1218ZM119.386 46.7747C119.743 47.1676 119.933 47.6952 119.933 48.3864H120.507C120.507 47.5842 120.282 46.9087 119.81 46.389L119.386 46.7747ZM119.933 48.3864C119.933 49.0865 119.663 49.6475 119.108 50.0916L119.466 50.5394C120.155 49.9878 120.507 49.2629 120.507 48.3864H119.933ZM119.109 50.0901C118.592 50.4964 117.893 50.7133 116.984 50.7133V51.2867C117.984 51.2867 118.819 51.0472 119.464 50.5409L119.109 50.0901ZM116.984 50.7133H116.424V51.2867H116.984V50.7133ZM131.16 49.0709L131.01 49.315L131.013 49.3168L131.16 49.0709ZM125.249 42.8482L124.998 42.9874L125.249 42.8482ZM125.311 25.1134L125.064 24.9682L125.062 24.9711L125.311 25.1134ZM131.534 18.9529L131.676 19.2018L131.679 19.2001L131.534 18.9529ZM149.082 18.9529L148.935 19.1991L148.94 19.2018L149.082 18.9529ZM155.242 25.1134L154.993 25.2556L154.995 25.2586L155.242 25.1134ZM157.607 34.0119L157.735 34.2683L157.896 34.188L157.894 34.0083L157.607 34.0119ZM155.491 35.0698L155.363 34.8134L155.205 34.8926V35.0698H155.491ZM153.376 43.346L153.127 43.2029L153.125 43.2061L153.376 43.346ZM147.713 49.1954L147.86 49.4416L147.861 49.4409L147.713 49.1954ZM146.531 44.9639L146.679 45.2093L146.681 45.2083L146.531 44.9639ZM150.824 40.4213L150.575 40.2802L150.572 40.2844L150.824 40.4213ZM150.824 27.6025L150.572 27.7394L150.576 27.7459L150.824 27.6025ZM146.531 23.0599L146.378 23.3027L146.381 23.3042L146.531 23.0599ZM134.147 23.0599L134 22.814L133.997 22.8155L134.147 23.0599ZM129.791 27.6025L130.04 27.7459L130.041 27.7435L129.791 27.6025ZM129.791 40.4213L130.041 40.2803L129.791 40.4213ZM134.147 44.9639L133.997 45.2084L134.004 45.2122L134.147 44.9639ZM153.002 50.3155L152.799 50.5182L152.808 50.5266L152.817 50.5343L153.002 50.3155ZM152.255 38.1189L151.975 38.0577L151.969 38.088V38.1189H152.255ZM153.438 32.7051L153.524 32.4316L153.225 32.3379L153.158 32.644L153.438 32.7051ZM157.607 34.0119H157.894V33.8013L157.693 33.7383L157.607 34.0119ZM156.86 50.3155L157.054 50.527L157.063 50.5182L156.86 50.3155ZM139.623 51.0245C136.518 51.0245 133.749 50.2896 131.308 48.8251L131.013 49.3168C133.55 50.8393 136.423 51.5978 139.623 51.5978V51.0245ZM131.311 48.8269C128.865 47.3184 126.928 45.2806 125.499 42.709L124.998 42.9874C126.473 45.6429 128.478 47.7536 131.01 49.315L131.311 48.8269ZM125.499 42.709C124.073 40.142 123.357 37.2453 123.357 34.0119H122.784C122.784 37.3331 123.52 40.3273 124.998 42.9874L125.499 42.709ZM123.357 34.0119C123.357 30.7377 124.094 27.8215 125.56 25.2556L125.062 24.9711C123.541 27.6323 122.784 30.6485 122.784 34.0119H123.357ZM125.558 25.2586C127.068 22.6878 129.106 20.6702 131.676 19.2018L131.392 18.7039C128.734 20.2224 126.624 22.3118 125.064 24.9682L125.558 25.2586ZM131.679 19.2001C134.245 17.6931 137.139 16.9371 140.37 16.9371V16.3638C137.046 16.3638 134.05 17.1428 131.389 18.7056L131.679 19.2001ZM140.37 16.9371C143.558 16.9371 146.411 17.6927 148.935 19.199L149.229 18.7067C146.609 17.1431 143.653 16.3638 140.37 16.3638V16.9371ZM148.94 19.2018C151.509 20.6698 153.525 22.6865 154.993 25.2556L155.491 24.9711C153.972 22.3131 151.882 20.2228 149.224 18.7039L148.94 19.2018ZM154.995 25.2586C156.503 27.8251 157.279 30.7416 157.32 34.0155L157.894 34.0083C157.852 30.6446 157.052 27.6287 155.49 24.9682L154.995 25.2586ZM157.479 33.7555L155.363 34.8134L155.62 35.3262L157.735 34.2683L157.479 33.7555ZM155.205 35.0698C155.205 38.0939 154.51 40.8025 153.127 43.2029L153.624 43.4892C155.062 40.9943 155.778 38.1854 155.778 35.0698H155.205ZM153.125 43.2061C151.781 45.6102 149.928 47.5236 147.565 48.9499L147.861 49.4409C150.31 47.9632 152.232 45.9771 153.626 43.486L153.125 43.2061ZM147.566 48.9492C145.25 50.3306 142.605 51.0245 139.623 51.0245V51.5978C142.698 51.5978 145.446 50.8812 147.86 49.4416L147.566 48.9492ZM140.37 46.8685C142.739 46.8685 144.845 46.3179 146.679 45.2093L146.382 44.7186C144.648 45.7671 142.647 46.2952 140.37 46.2952V46.8685ZM146.681 45.2083C148.549 44.0615 150.015 42.51 151.076 40.5582L150.572 40.2844C149.559 42.1493 148.163 43.6261 146.381 44.7196L146.681 45.2083ZM151.074 40.5624C152.179 38.6077 152.729 36.422 152.729 34.0119H152.155C152.155 36.3311 151.627 38.4184 150.575 40.2803L151.074 40.5624ZM152.729 34.0119C152.729 31.5614 152.179 29.3744 151.072 27.459L150.576 27.7459C151.627 29.5642 152.155 31.6502 152.155 34.0119H152.729ZM151.076 27.4656C150.015 25.5138 148.549 23.9623 146.681 22.8155L146.381 23.3042C148.163 24.3977 149.559 25.8745 150.572 27.7394L151.076 27.4656ZM146.683 22.8171C144.849 21.6654 142.741 21.093 140.37 21.093V21.6664C142.645 21.6664 144.645 22.2142 146.378 23.3027L146.683 22.8171ZM140.37 21.093C138.039 21.093 135.913 21.6659 134 22.814L134.295 23.3057C136.115 22.2136 138.138 21.6664 140.37 21.6664V21.093ZM133.997 22.8155C132.13 23.9617 130.644 25.5118 129.542 27.4614L130.041 27.7435C131.096 25.8765 132.514 24.3983 134.297 23.3042L133.997 22.8155ZM129.543 27.459C128.437 29.3744 127.887 31.5614 127.887 34.0119H128.46C128.46 31.6502 128.989 29.5642 130.04 27.7459L129.543 27.459ZM127.887 34.0119C127.887 36.422 128.437 38.6077 129.542 40.5624L130.041 40.2803C128.989 38.4184 128.46 36.3311 128.46 34.0119H127.887ZM129.542 40.5624C130.644 42.512 132.13 44.0621 133.997 45.2083L134.297 44.7196C132.514 43.6255 131.096 42.1473 130.041 40.2803L129.542 40.5624ZM134.004 45.2122C135.917 46.3174 138.041 46.8685 140.37 46.8685V46.2952C138.136 46.2952 136.111 45.7676 134.291 44.7157L134.004 45.2122ZM154.931 50.7133C154.248 50.7133 153.672 50.5065 153.187 50.0966L152.817 50.5343C153.411 51.0371 154.121 51.2867 154.931 51.2867V50.7133ZM153.205 50.1128C152.768 49.6754 152.542 49.1086 152.542 48.3864H151.969C151.969 49.2408 152.241 49.96 152.799 50.5182L153.205 50.1128ZM152.542 48.3864V38.1189H151.969V48.3864H152.542ZM152.536 38.1801L153.718 32.7663L153.158 32.644L151.975 38.0577L152.536 38.1801ZM153.352 32.9787L157.521 34.2855L157.693 33.7383L153.524 32.4316L153.352 32.9787ZM157.32 34.0119V48.3864H157.894V34.0119H157.32ZM157.32 48.3864C157.32 49.1086 157.095 49.6754 156.658 50.1128L157.063 50.5182C157.621 49.96 157.894 49.2408 157.894 48.3864H157.32ZM156.667 50.1042C156.23 50.504 155.661 50.7133 154.931 50.7133V51.2867C155.778 51.2867 156.495 51.0396 157.054 50.5268L156.667 50.1042ZM175.391 49.0709L175.244 49.3171L175.247 49.3189L175.391 49.0709ZM169.23 42.9104L168.981 43.0527L168.984 43.0573L169.23 42.9104ZM166.928 34.1364H166.641L166.641 34.14L166.928 34.1364ZM167.612 3.14707L167.409 2.94436V2.94436L167.612 3.14707ZM171.47 3.14707L171.259 3.3408L171.267 3.34998L171.276 3.35841L171.47 3.14707ZM172.217 22.8732H171.93V23.7489L172.448 23.0427L172.217 22.8732ZM177.568 18.3928L177.699 18.6483L177.702 18.6463L177.568 18.3928ZM193.374 18.9529L193.224 19.1969L193.227 19.1987L193.374 18.9529ZM199.224 25.1134L198.971 25.2495L198.973 25.2526L199.224 25.1134ZM199.099 42.8482L198.852 42.703L198.85 42.706L199.099 42.8482ZM192.939 49.0709L193.083 49.3189L193.084 49.3182L192.939 49.0709ZM190.325 44.9017L190.178 44.6559L190.175 44.6574L190.325 44.9017ZM194.681 40.4213L194.431 40.2803L194.43 40.2821L194.681 40.4213ZM194.681 27.5402L194.429 27.6772L194.431 27.6813L194.681 27.5402ZM190.325 23.0599L190.175 23.3043L190.182 23.3081L190.325 23.0599ZM177.942 23.0599L178.088 23.3067L178.089 23.3057L177.942 23.0599ZM173.648 27.5402L173.9 27.6771L173.648 27.5402ZM173.648 40.4213L173.396 40.5582L173.398 40.5606L173.648 40.4213ZM177.942 44.9017L177.792 45.1461L177.794 45.1475L177.942 44.9017ZM184.102 51.0245C180.912 51.0245 178.059 50.2889 175.534 48.823L175.247 49.3189C177.866 50.8399 180.821 51.5978 184.102 51.5978V51.0245ZM175.537 48.8248C173.006 47.3142 170.987 45.2948 169.476 42.7635L168.984 43.0573C170.543 45.6702 172.631 47.7578 175.244 49.3171L175.537 48.8248ZM169.479 42.7682C168.011 40.2 167.255 37.3236 167.214 34.1327L166.641 34.14C166.683 37.4207 167.462 40.3937 168.981 43.0527L169.479 42.7682ZM167.214 34.1364V5.07613H166.641V34.1364H167.214ZM167.214 5.07613C167.214 4.29974 167.426 3.73818 167.815 3.34979L167.409 2.94436C166.885 3.46864 166.641 4.19312 166.641 5.07613H167.214ZM167.815 3.34979C168.249 2.91526 168.835 2.68703 169.603 2.68703V2.11366C168.712 2.11366 167.97 2.38326 167.409 2.94436L167.815 3.34979ZM169.603 2.68703C170.326 2.68703 170.866 2.91225 171.259 3.3408L171.681 2.95335C171.162 2.38626 170.457 2.11366 169.603 2.11366V2.68703ZM171.276 3.35841C171.702 3.74837 171.93 4.307 171.93 5.07613H172.504C172.504 4.18586 172.234 3.45845 171.664 2.93574L171.276 3.35841ZM171.93 5.07613V22.8732H172.504V5.07613H171.93ZM172.448 23.0427C173.789 21.2144 175.537 19.7494 177.699 18.6483L177.438 18.1374C175.202 19.2764 173.383 20.7983 171.986 22.7036L172.448 23.0427ZM177.702 18.6463C179.856 17.5083 182.257 16.9371 184.911 16.9371V16.3638C182.172 16.3638 179.678 16.9541 177.435 18.1393L177.702 18.6463ZM184.911 16.9371C188.015 16.9371 190.783 17.692 193.224 19.1969L193.525 18.7088C190.987 17.1438 188.113 16.3638 184.911 16.3638V16.9371ZM193.227 19.1987C195.671 20.665 197.585 22.6802 198.971 25.2495L199.476 24.9772C198.042 22.3195 196.056 20.2276 193.522 18.707L193.227 19.1987ZM198.973 25.2526C200.399 27.8196 201.115 30.7163 201.115 33.9497H201.688C201.688 30.6284 200.952 27.6343 199.474 24.9741L198.973 25.2526ZM201.115 33.9497C201.115 37.2224 200.359 40.1376 198.852 42.703L199.346 42.9934C200.91 40.3317 201.688 37.3145 201.688 33.9497H201.115ZM198.85 42.706C197.382 45.2758 195.364 47.314 192.793 48.8237L193.084 49.3182C195.74 47.7581 197.83 45.6477 199.348 42.9904L198.85 42.706ZM192.795 48.823C190.271 50.2882 187.377 51.0245 184.102 51.0245V51.5978C187.466 51.5978 190.462 50.8406 193.083 49.3189L192.795 48.823ZM184.102 46.8685C186.474 46.8685 188.601 46.2962 190.475 45.1461L190.175 44.6574C188.399 45.7474 186.377 46.2952 184.102 46.2952V46.8685ZM190.473 45.1475C192.382 44.0021 193.87 42.4722 194.932 40.5606L194.43 40.2821C193.418 42.1041 192.002 43.5611 190.178 44.6559L190.473 45.1475ZM194.931 40.5624C196.036 38.6069 196.586 36.4003 196.586 33.9497H196.012C196.012 36.3113 195.483 38.4191 194.431 40.2803L194.931 40.5624ZM196.586 33.9497C196.586 31.5396 196.035 29.3539 194.931 27.3992L194.431 27.6813C195.484 29.5432 196.012 31.6305 196.012 33.9497H196.586ZM194.933 27.4034C193.871 25.449 192.381 23.9169 190.469 22.8116L190.182 23.3081C192.002 24.3601 193.417 25.8149 194.429 27.6771L194.933 27.4034ZM190.475 22.8155C188.601 21.6654 186.474 21.093 184.102 21.093V21.6664C186.377 21.6664 188.399 22.2141 190.175 23.3042L190.475 22.8155ZM184.102 21.093C181.812 21.093 179.707 21.6664 177.794 22.814L178.089 23.3057C179.91 22.2131 181.913 21.6664 184.102 21.6664V21.093ZM177.796 22.8131C175.925 23.9187 174.457 25.4507 173.396 27.4034L173.9 27.6771C174.913 25.8132 176.308 24.3582 178.088 23.3067L177.796 22.8131ZM173.396 27.4034C172.334 29.3573 171.806 31.5416 171.806 33.9497H172.379C172.379 31.6285 172.888 29.5398 173.9 27.6771L173.396 27.4034ZM171.806 33.9497C171.806 36.3984 172.334 38.6035 173.396 40.5582L173.9 40.2844C172.888 38.4225 172.379 36.3132 172.379 33.9497H171.806ZM173.398 40.5606C174.459 42.4706 175.925 44.0002 177.792 45.1461L178.092 44.6574C176.308 43.563 174.912 42.1057 173.899 40.2821L173.398 40.5606ZM177.794 45.1475C179.707 46.2952 181.812 46.8685 184.102 46.8685V46.2952C181.913 46.2952 179.91 45.7484 178.089 44.6559L177.794 45.1475Z" fill="#9A54BC" mask="url(#path-1-outside-1_1_225)"/>
</g>
<defs>
<filter id="filter0_d_1_225" x="0.301502" y="0.930504" width="202.456" height="52.5557" filterUnits="userSpaceOnUse" color-interpolation-filters="sRGB">
<feFlood flood-opacity="0" result="BackgroundImageFix"/>
<feColorMatrix in="SourceAlpha" type="matrix" values="0 0 0 0 0 0 0 0 0 0 0 0 0 0 0 0 0 0 127 0" result="hardAlpha"/>
<feOffset dy="0.508397"/>
<feGaussianBlur stdDeviation="0.677862"/>
<feComposite in2="hardAlpha" operator="out"/>
<feColorMatrix type="matrix" values="0 0 0 0 0.721569 0 0 0 0 0.847059 0 0 0 0 0.94902 0 0 0 0.25 0"/>
<feBlend mode="normal" in2="BackgroundImageFix" result="effect1_dropShadow_1_225"/>
<feBlend mode="normal" in="SourceGraphic" in2="effect1_dropShadow_1_225" result="shape"/>
</filter>
</defs>
</svg>
