<svg width="51" height="71" viewBox="0 0 51 71" fill="none" xmlns="http://www.w3.org/2000/svg">
<path d="M42.435 6.13773H39.0274C37.7989 6.13773 36.8032 7.13354 36.8032 8.36193V20.7482C36.8032 21.9766 37.7989 22.9724 39.0274 22.9724H42.435C43.6635 22.9724 44.6592 21.9766 44.6592 20.7482V8.36193C44.6592 7.13354 43.6635 6.13773 42.435 6.13773Z" fill="#41529F"/>
<path d="M29.6931 69.3249V57.5907H44.1376L31.6091 70.1195C31.4521 70.2767 31.252 70.3836 31.0342 70.4268C30.8164 70.47 30.5906 70.4479 30.3855 70.3628C30.1803 70.2777 30.005 70.1335 29.8818 69.9487C29.7586 69.7643 29.6929 69.547 29.6931 69.3249Z" fill="#41529F"/>
<path d="M44.9115 56.8615H29.6931V58.268H43.4319L44.9115 56.8615Z" fill="#324293"/>
<path d="M48.0402 22.119L27.253 1.32985C26.6908 0.770455 25.93 0.456421 25.1369 0.456421C24.3438 0.456421 23.583 0.770455 23.0208 1.32985L2.23398 22.119C0.965504 23.5298 0.218082 25.3322 0.115967 27.2266V30.8885C11.4726 39.3378 25.2557 43.8905 39.4106 43.8678C43.0104 43.8684 46.6045 43.5758 50.1569 42.9929V27.2266C50.0536 25.3327 49.307 23.5307 48.0402 22.119Z" fill="#41529F"/>
<path d="M39.4113 47.2347C25.2565 47.2571 11.4734 42.7045 0.116699 34.2555V54.0363C0.119268 54.8293 0.435384 55.5889 0.996044 56.1494C1.5567 56.7103 2.31637 57.0262 3.10926 57.0288H47.1654C47.9581 57.0262 48.7177 56.7099 49.2785 56.1494C49.839 55.5886 50.155 54.829 50.1576 54.0363V46.3599C46.6052 46.9428 43.0112 47.2354 39.4113 47.2347Z" fill="#41529F"/>
</svg>
