<svg width="91" height="24" viewBox="0 0 91 24" fill="none" xmlns="http://www.w3.org/2000/svg">
<g filter="url(#filter0_d_1_1187)">
<mask id="path-1-outside-1_1_1187" maskUnits="userSpaceOnUse" x="1.02002" y="0.411987" width="89" height="23" fill="black">
<rect fill="white" x="1.02002" y="0.411987" width="89" height="23"/>
<path d="M12.1386 22.6859C10.6594 22.6859 9.27156 22.4029 7.97498 21.8367C6.69666 21.2706 5.56444 20.4854 4.5783 19.481C3.61043 18.4766 2.85257 17.317 2.30472 16.0021C1.77513 14.669 1.51034 13.2355 1.51034 11.7015C1.51034 10.1858 1.77513 8.77051 2.30472 7.45567C2.85257 6.12256 3.61043 4.96294 4.5783 3.97681C5.54617 2.97242 6.66927 2.18717 7.94759 1.62105C9.24416 1.03668 10.6412 0.744495 12.1386 0.744495C13.4717 0.744495 14.6679 0.936243 15.7271 1.31974C16.7862 1.68497 17.818 2.28761 18.8224 3.12764C18.9868 3.25548 19.0872 3.40157 19.1237 3.56593C19.1785 3.71202 19.1785 3.85811 19.1237 4.00421C19.0872 4.1503 19.0233 4.27813 18.932 4.3877C18.8955 4.58858 18.7859 4.75294 18.6033 4.88077C18.4389 4.99034 18.238 5.04512 18.0006 5.04512C17.7632 5.04512 17.5258 4.95381 17.2884 4.7712C16.5945 4.1503 15.8458 3.69376 15.0423 3.40157C14.2387 3.09112 13.2709 2.9359 12.1386 2.9359C10.9882 2.9359 9.90159 3.1733 8.87893 3.6481C7.87454 4.10465 6.98885 4.73467 6.22186 5.53819C5.45486 6.3417 4.85223 7.27305 4.41395 8.33223C3.99393 9.3914 3.78392 10.5145 3.78392 11.7015C3.78392 12.925 3.99393 14.0664 4.41395 15.1256C4.85223 16.1848 5.45486 17.1161 6.22186 17.9196C6.98885 18.7231 7.87454 19.3532 8.87893 19.8097C9.90159 20.2662 10.9882 20.4945 12.1386 20.4945C13.1065 20.4945 14.0287 20.3302 14.9053 20.0014C15.7818 19.6727 16.6219 19.2071 17.4254 18.6044C17.6811 18.4035 17.9367 18.3214 18.1924 18.3579C18.4663 18.3944 18.6946 18.5131 18.8772 18.714C19.0781 18.8966 19.1785 19.1523 19.1785 19.481C19.1785 19.6453 19.1511 19.7914 19.0963 19.9193C19.0416 20.0471 18.9594 20.1841 18.8498 20.3302C17.9002 21.1519 16.8502 21.7546 15.6997 22.1381C14.5674 22.5033 13.3804 22.6859 12.1386 22.6859ZM29.1068 22.5489C27.6276 22.5489 26.3128 22.2202 25.1623 21.5628C24.0301 20.9054 23.1352 20.0014 22.4778 18.851C21.8204 17.7005 21.4917 16.3948 21.4917 14.9338C21.4917 13.4546 21.8204 12.1398 22.4778 10.9893C23.1352 9.83882 24.0301 8.93486 25.1623 8.27744C26.3128 7.62002 27.6276 7.29131 29.1068 7.29131C30.5678 7.29131 31.8643 7.62002 32.9966 8.27744C34.1288 8.93486 35.0236 9.83882 35.681 10.9893C36.3384 12.1398 36.6763 13.4546 36.6945 14.9338C36.6945 16.3948 36.3658 17.7005 35.7084 18.851C35.051 20.0014 34.147 20.9054 32.9966 21.5628C31.8643 22.2202 30.5678 22.5489 29.1068 22.5489ZM29.1068 20.4671C30.1295 20.4671 31.0426 20.2297 31.8461 19.7549C32.6496 19.2618 33.2796 18.6044 33.7362 17.7826C34.1927 16.9426 34.421 15.993 34.421 14.9338C34.421 13.8746 34.1927 12.925 33.7362 12.085C33.2796 11.245 32.6496 10.5875 31.8461 10.1127C31.0426 9.61968 30.1295 9.37314 29.1068 9.37314C28.0842 9.37314 27.1619 9.61968 26.3402 10.1127C25.5367 10.5875 24.8975 11.245 24.4227 12.085C23.9662 12.925 23.7379 13.8746 23.7379 14.9338C23.7379 15.993 23.9662 16.9426 24.4227 17.7826C24.8975 18.6044 25.5367 19.2618 26.3402 19.7549C27.1619 20.2297 28.0842 20.4671 29.1068 20.4671ZM44.1393 22.412C43.3723 22.412 42.6967 22.2111 42.1123 21.8094C41.5279 21.3893 41.0714 20.8141 40.7427 20.0836C40.4139 19.3532 40.2496 18.5131 40.2496 17.5635V2.16891C40.2496 1.82193 40.35 1.54801 40.5509 1.34713C40.77 1.12799 41.0531 1.01842 41.4001 1.01842C41.7288 1.01842 41.9936 1.12799 42.1945 1.34713C42.4136 1.54801 42.5232 1.82193 42.5232 2.16891V17.5635C42.5232 18.3122 42.6693 18.9331 42.9614 19.4262C43.2719 19.901 43.6645 20.1384 44.1393 20.1384H44.8241C45.1163 20.1384 45.3537 20.248 45.5363 20.4671C45.719 20.668 45.8103 20.9328 45.8103 21.2615C45.8103 21.6085 45.6733 21.8915 45.3994 22.1107C45.1437 22.3115 44.8059 22.412 44.3859 22.412H44.1393ZM52.0307 22.412C51.2637 22.412 50.5881 22.2111 50.0037 21.8094C49.4193 21.3893 48.9628 20.8141 48.6341 20.0836C48.3053 19.3532 48.141 18.5131 48.141 17.5635V2.16891C48.141 1.82193 48.2414 1.54801 48.4423 1.34713C48.6614 1.12799 48.9445 1.01842 49.2915 1.01842C49.6202 1.01842 49.885 1.12799 50.0859 1.34713C50.305 1.54801 50.4146 1.82193 50.4146 2.16891V17.5635C50.4146 18.3122 50.5607 18.9331 50.8528 19.4262C51.1633 19.901 51.5559 20.1384 52.0307 20.1384H52.7155C53.0077 20.1384 53.2451 20.248 53.4277 20.4671C53.6104 20.668 53.7017 20.9328 53.7017 21.2615C53.7017 21.6085 53.5647 21.8915 53.2908 22.1107C53.0351 22.3115 52.6973 22.412 52.2773 22.412H52.0307ZM62.243 22.5489C60.8551 22.5489 59.6133 22.2202 58.5176 21.5628C57.4219 20.8871 56.5545 19.9741 55.9153 18.8236C55.2762 17.6731 54.9566 16.3765 54.9566 14.9338C54.9566 13.4729 55.2853 12.1672 55.9427 11.0167C56.6184 9.86621 57.5315 8.96225 58.682 8.30483C59.8325 7.62915 61.129 7.29131 62.5717 7.29131C63.9961 7.29131 65.2744 7.62915 66.4067 8.30483C67.5572 8.96225 68.4611 9.86621 69.1185 11.0167C69.7942 12.1672 70.1412 13.4729 70.1594 14.9338L69.2281 15.3995C69.2281 16.7509 68.9177 17.9653 68.2968 19.0427C67.6941 20.1201 66.8632 20.9784 65.804 21.6176C64.7631 22.2385 63.5761 22.5489 62.243 22.5489ZM62.5717 20.4671C63.5944 20.4671 64.4983 20.2297 65.2836 19.7549C66.0871 19.2618 66.7171 18.5953 67.1737 17.7553C67.6485 16.9152 67.8859 15.9747 67.8859 14.9338C67.8859 13.8746 67.6485 12.9342 67.1737 12.1124C66.7171 11.2724 66.0871 10.6058 65.2836 10.1127C64.4983 9.61968 63.5944 9.37314 62.5717 9.37314C61.5673 9.37314 60.6542 9.61968 59.8325 10.1127C59.0289 10.6058 58.3898 11.2724 57.915 12.1124C57.4402 12.9342 57.2028 13.8746 57.2028 14.9338C57.2028 15.9747 57.4402 16.9152 57.915 17.7553C58.3898 18.5953 59.0289 19.2618 59.8325 19.7549C60.6542 20.2297 61.5673 20.4671 62.5717 20.4671ZM68.9816 22.412C68.6529 22.412 68.3698 22.3115 68.1324 22.1107C67.9133 21.8915 67.8037 21.6085 67.8037 21.2615V16.7417L68.3241 14.3586L70.1594 14.9338V21.2615C70.1594 21.6085 70.0499 21.8915 69.8307 22.1107C69.6116 22.3115 69.3285 22.412 68.9816 22.412ZM81.8227 22.5489C80.3983 22.5489 79.1199 22.2202 77.9877 21.5628C76.8555 20.8871 75.9515 19.9832 75.2759 18.851C74.6184 17.7005 74.2806 16.413 74.2623 14.9886V2.1963C74.2623 1.83107 74.3628 1.54801 74.5637 1.34713C74.7828 1.12799 75.075 1.01842 75.4402 1.01842C75.7872 1.01842 76.0611 1.12799 76.262 1.34713C76.4811 1.54801 76.5907 1.83107 76.5907 2.1963V10.0306C77.1933 9.20879 77.9786 8.55137 78.9465 8.0583C79.9143 7.54697 80.9918 7.29131 82.1788 7.29131C83.5667 7.29131 84.8085 7.62915 85.9042 8.30483C86.9999 8.96225 87.8582 9.86621 88.4791 11.0167C89.1182 12.1672 89.4378 13.4638 89.4378 14.9064C89.4378 16.3674 89.1 17.6731 88.4243 18.8236C87.7669 19.9741 86.8629 20.8871 85.7124 21.5628C84.5802 22.2202 83.2836 22.5489 81.8227 22.5489ZM81.8227 20.4671C82.8453 20.4671 83.7584 20.2206 84.5619 19.7275C85.3837 19.2345 86.0229 18.577 86.4794 17.7553C86.9542 16.9152 87.1916 15.9656 87.1916 14.9064C87.1916 13.8655 86.9542 12.925 86.4794 12.085C86.0229 11.245 85.3837 10.5875 84.5619 10.1127C83.7584 9.61968 82.8453 9.37314 81.8227 9.37314C80.8365 9.37314 79.9326 9.61968 79.1108 10.1127C78.3073 10.5875 77.6773 11.245 77.2207 12.085C76.7642 12.925 76.5359 13.8655 76.5359 14.9064C76.5359 15.9656 76.7642 16.9152 77.2207 17.7553C77.6773 18.577 78.3073 19.2345 79.1108 19.7275C79.9326 20.2206 80.8365 20.4671 81.8227 20.4671Z"/>
</mask>
<path d="M12.1386 22.6859C10.6594 22.6859 9.27156 22.4029 7.97498 21.8367C6.69666 21.2706 5.56444 20.4854 4.5783 19.481C3.61043 18.4766 2.85257 17.317 2.30472 16.0021C1.77513 14.669 1.51034 13.2355 1.51034 11.7015C1.51034 10.1858 1.77513 8.77051 2.30472 7.45567C2.85257 6.12256 3.61043 4.96294 4.5783 3.97681C5.54617 2.97242 6.66927 2.18717 7.94759 1.62105C9.24416 1.03668 10.6412 0.744495 12.1386 0.744495C13.4717 0.744495 14.6679 0.936243 15.7271 1.31974C16.7862 1.68497 17.818 2.28761 18.8224 3.12764C18.9868 3.25548 19.0872 3.40157 19.1237 3.56593C19.1785 3.71202 19.1785 3.85811 19.1237 4.00421C19.0872 4.1503 19.0233 4.27813 18.932 4.3877C18.8955 4.58858 18.7859 4.75294 18.6033 4.88077C18.4389 4.99034 18.238 5.04512 18.0006 5.04512C17.7632 5.04512 17.5258 4.95381 17.2884 4.7712C16.5945 4.1503 15.8458 3.69376 15.0423 3.40157C14.2387 3.09112 13.2709 2.9359 12.1386 2.9359C10.9882 2.9359 9.90159 3.1733 8.87893 3.6481C7.87454 4.10465 6.98885 4.73467 6.22186 5.53819C5.45486 6.3417 4.85223 7.27305 4.41395 8.33223C3.99393 9.3914 3.78392 10.5145 3.78392 11.7015C3.78392 12.925 3.99393 14.0664 4.41395 15.1256C4.85223 16.1848 5.45486 17.1161 6.22186 17.9196C6.98885 18.7231 7.87454 19.3532 8.87893 19.8097C9.90159 20.2662 10.9882 20.4945 12.1386 20.4945C13.1065 20.4945 14.0287 20.3302 14.9053 20.0014C15.7818 19.6727 16.6219 19.2071 17.4254 18.6044C17.6811 18.4035 17.9367 18.3214 18.1924 18.3579C18.4663 18.3944 18.6946 18.5131 18.8772 18.714C19.0781 18.8966 19.1785 19.1523 19.1785 19.481C19.1785 19.6453 19.1511 19.7914 19.0963 19.9193C19.0416 20.0471 18.9594 20.1841 18.8498 20.3302C17.9002 21.1519 16.8502 21.7546 15.6997 22.1381C14.5674 22.5033 13.3804 22.6859 12.1386 22.6859ZM29.1068 22.5489C27.6276 22.5489 26.3128 22.2202 25.1623 21.5628C24.0301 20.9054 23.1352 20.0014 22.4778 18.851C21.8204 17.7005 21.4917 16.3948 21.4917 14.9338C21.4917 13.4546 21.8204 12.1398 22.4778 10.9893C23.1352 9.83882 24.0301 8.93486 25.1623 8.27744C26.3128 7.62002 27.6276 7.29131 29.1068 7.29131C30.5678 7.29131 31.8643 7.62002 32.9966 8.27744C34.1288 8.93486 35.0236 9.83882 35.681 10.9893C36.3384 12.1398 36.6763 13.4546 36.6945 14.9338C36.6945 16.3948 36.3658 17.7005 35.7084 18.851C35.051 20.0014 34.147 20.9054 32.9966 21.5628C31.8643 22.2202 30.5678 22.5489 29.1068 22.5489ZM29.1068 20.4671C30.1295 20.4671 31.0426 20.2297 31.8461 19.7549C32.6496 19.2618 33.2796 18.6044 33.7362 17.7826C34.1927 16.9426 34.421 15.993 34.421 14.9338C34.421 13.8746 34.1927 12.925 33.7362 12.085C33.2796 11.245 32.6496 10.5875 31.8461 10.1127C31.0426 9.61968 30.1295 9.37314 29.1068 9.37314C28.0842 9.37314 27.1619 9.61968 26.3402 10.1127C25.5367 10.5875 24.8975 11.245 24.4227 12.085C23.9662 12.925 23.7379 13.8746 23.7379 14.9338C23.7379 15.993 23.9662 16.9426 24.4227 17.7826C24.8975 18.6044 25.5367 19.2618 26.3402 19.7549C27.1619 20.2297 28.0842 20.4671 29.1068 20.4671ZM44.1393 22.412C43.3723 22.412 42.6967 22.2111 42.1123 21.8094C41.5279 21.3893 41.0714 20.8141 40.7427 20.0836C40.4139 19.3532 40.2496 18.5131 40.2496 17.5635V2.16891C40.2496 1.82193 40.35 1.54801 40.5509 1.34713C40.77 1.12799 41.0531 1.01842 41.4001 1.01842C41.7288 1.01842 41.9936 1.12799 42.1945 1.34713C42.4136 1.54801 42.5232 1.82193 42.5232 2.16891V17.5635C42.5232 18.3122 42.6693 18.9331 42.9614 19.4262C43.2719 19.901 43.6645 20.1384 44.1393 20.1384H44.8241C45.1163 20.1384 45.3537 20.248 45.5363 20.4671C45.719 20.668 45.8103 20.9328 45.8103 21.2615C45.8103 21.6085 45.6733 21.8915 45.3994 22.1107C45.1437 22.3115 44.8059 22.412 44.3859 22.412H44.1393ZM52.0307 22.412C51.2637 22.412 50.5881 22.2111 50.0037 21.8094C49.4193 21.3893 48.9628 20.8141 48.6341 20.0836C48.3053 19.3532 48.141 18.5131 48.141 17.5635V2.16891C48.141 1.82193 48.2414 1.54801 48.4423 1.34713C48.6614 1.12799 48.9445 1.01842 49.2915 1.01842C49.6202 1.01842 49.885 1.12799 50.0859 1.34713C50.305 1.54801 50.4146 1.82193 50.4146 2.16891V17.5635C50.4146 18.3122 50.5607 18.9331 50.8528 19.4262C51.1633 19.901 51.5559 20.1384 52.0307 20.1384H52.7155C53.0077 20.1384 53.2451 20.248 53.4277 20.4671C53.6104 20.668 53.7017 20.9328 53.7017 21.2615C53.7017 21.6085 53.5647 21.8915 53.2908 22.1107C53.0351 22.3115 52.6973 22.412 52.2773 22.412H52.0307ZM62.243 22.5489C60.8551 22.5489 59.6133 22.2202 58.5176 21.5628C57.4219 20.8871 56.5545 19.9741 55.9153 18.8236C55.2762 17.6731 54.9566 16.3765 54.9566 14.9338C54.9566 13.4729 55.2853 12.1672 55.9427 11.0167C56.6184 9.86621 57.5315 8.96225 58.682 8.30483C59.8325 7.62915 61.129 7.29131 62.5717 7.29131C63.9961 7.29131 65.2744 7.62915 66.4067 8.30483C67.5572 8.96225 68.4611 9.86621 69.1185 11.0167C69.7942 12.1672 70.1412 13.4729 70.1594 14.9338L69.2281 15.3995C69.2281 16.7509 68.9177 17.9653 68.2968 19.0427C67.6941 20.1201 66.8632 20.9784 65.804 21.6176C64.7631 22.2385 63.5761 22.5489 62.243 22.5489ZM62.5717 20.4671C63.5944 20.4671 64.4983 20.2297 65.2836 19.7549C66.0871 19.2618 66.7171 18.5953 67.1737 17.7553C67.6485 16.9152 67.8859 15.9747 67.8859 14.9338C67.8859 13.8746 67.6485 12.9342 67.1737 12.1124C66.7171 11.2724 66.0871 10.6058 65.2836 10.1127C64.4983 9.61968 63.5944 9.37314 62.5717 9.37314C61.5673 9.37314 60.6542 9.61968 59.8325 10.1127C59.0289 10.6058 58.3898 11.2724 57.915 12.1124C57.4402 12.9342 57.2028 13.8746 57.2028 14.9338C57.2028 15.9747 57.4402 16.9152 57.915 17.7553C58.3898 18.5953 59.0289 19.2618 59.8325 19.7549C60.6542 20.2297 61.5673 20.4671 62.5717 20.4671ZM68.9816 22.412C68.6529 22.412 68.3698 22.3115 68.1324 22.1107C67.9133 21.8915 67.8037 21.6085 67.8037 21.2615V16.7417L68.3241 14.3586L70.1594 14.9338V21.2615C70.1594 21.6085 70.0499 21.8915 69.8307 22.1107C69.6116 22.3115 69.3285 22.412 68.9816 22.412ZM81.8227 22.5489C80.3983 22.5489 79.1199 22.2202 77.9877 21.5628C76.8555 20.8871 75.9515 19.9832 75.2759 18.851C74.6184 17.7005 74.2806 16.413 74.2623 14.9886V2.1963C74.2623 1.83107 74.3628 1.54801 74.5637 1.34713C74.7828 1.12799 75.075 1.01842 75.4402 1.01842C75.7872 1.01842 76.0611 1.12799 76.262 1.34713C76.4811 1.54801 76.5907 1.83107 76.5907 2.1963V10.0306C77.1933 9.20879 77.9786 8.55137 78.9465 8.0583C79.9143 7.54697 80.9918 7.29131 82.1788 7.29131C83.5667 7.29131 84.8085 7.62915 85.9042 8.30483C86.9999 8.96225 87.8582 9.86621 88.4791 11.0167C89.1182 12.1672 89.4378 13.4638 89.4378 14.9064C89.4378 16.3674 89.1 17.6731 88.4243 18.8236C87.7669 19.9741 86.8629 20.8871 85.7124 21.5628C84.5802 22.2202 83.2836 22.5489 81.8227 22.5489ZM81.8227 20.4671C82.8453 20.4671 83.7584 20.2206 84.5619 19.7275C85.3837 19.2345 86.0229 18.577 86.4794 17.7553C86.9542 16.9152 87.1916 15.9656 87.1916 14.9064C87.1916 13.8655 86.9542 12.925 86.4794 12.085C86.0229 11.245 85.3837 10.5875 84.5619 10.1127C83.7584 9.61968 82.8453 9.37314 81.8227 9.37314C80.8365 9.37314 79.9326 9.61968 79.1108 10.1127C78.3073 10.5875 77.6773 11.245 77.2207 12.085C76.7642 12.925 76.5359 13.8655 76.5359 14.9064C76.5359 15.9656 76.7642 16.9152 77.2207 17.7553C77.6773 18.577 78.3073 19.2345 79.1108 19.7275C79.9326 20.2206 80.8365 20.4671 81.8227 20.4671Z" fill="#9A54BC"/>
<path d="M7.97498 21.8367L7.92388 21.9521L7.92448 21.9524L7.97498 21.8367ZM4.5783 19.481L4.48743 19.5686L4.48825 19.5694L4.5783 19.481ZM2.30472 16.0021L2.18742 16.0487L2.18823 16.0507L2.30472 16.0021ZM2.30472 7.45567L2.18799 7.40769L2.18766 7.40852L2.30472 7.45567ZM4.5783 3.97681L4.66837 4.06522L4.66918 4.06438L4.5783 3.97681ZM7.94759 1.62106L7.99869 1.73645L7.99944 1.73611L7.94759 1.62106ZM15.7271 1.31974L15.6841 1.43841L15.6859 1.43904L15.7271 1.31974ZM18.8224 3.12764L18.7414 3.22451L18.7449 3.22726L18.8224 3.12764ZM19.1237 3.56593L19.0005 3.5933L19.0025 3.60195L19.0056 3.61024L19.1237 3.56593ZM19.1237 4.00421L19.0056 3.95989L19.003 3.96662L19.0013 3.9736L19.1237 4.00421ZM18.932 4.3877L18.835 4.30691L18.8138 4.33244L18.8078 4.36513L18.932 4.3877ZM18.6033 4.88077L18.6733 4.9858L18.6756 4.98415L18.6033 4.88077ZM17.2884 4.7712L17.2041 4.8655L17.2115 4.87122L17.2884 4.7712ZM15.0423 3.40157L14.9968 3.51931L14.9991 3.52017L15.0423 3.40157ZM8.87893 3.6481L8.93115 3.76299L8.93207 3.76257L8.87893 3.6481ZM6.22186 5.53819L6.13057 5.45105L6.22186 5.53819ZM4.41395 8.33223L4.29733 8.28397L4.29664 8.28571L4.41395 8.33223ZM4.41395 15.1256L4.29662 15.1721L4.29734 15.1738L4.41395 15.1256ZM6.22186 17.9196L6.31314 17.8325L6.22186 17.9196ZM8.87893 19.8097L8.82671 19.9246L8.82749 19.9249L8.87893 19.8097ZM14.9053 20.0014L14.9496 20.1196L14.9053 20.0014ZM17.4254 18.6044L17.5011 18.7054L17.5034 18.7037L17.4254 18.6044ZM18.1924 18.3579L18.1745 18.4828L18.1757 18.483L18.1924 18.3579ZM18.8772 18.714L18.7834 18.7993L18.7923 18.8074L18.8772 18.714ZM19.0963 19.9193L19.2123 19.969L19.0963 19.9193ZM18.8498 20.3302L18.9324 20.4256L18.9426 20.4167L18.9508 20.4059L18.8498 20.3302ZM15.6997 22.1381L15.7384 22.2582L15.7396 22.2578L15.6997 22.1381ZM12.1386 22.5597C10.676 22.5597 9.3054 22.2799 8.02548 21.7211L7.92448 21.9524C9.23771 22.5258 10.6429 22.8121 12.1386 22.8121V22.5597ZM8.02608 21.7214C6.76243 21.1617 5.6434 20.3857 4.66835 19.3926L4.48825 19.5694C5.48547 20.5851 6.63089 21.3795 7.92388 21.9521L8.02608 21.7214ZM4.66918 19.3934C3.71243 18.4006 2.96316 17.2543 2.42121 15.9536L2.18823 16.0507C2.74199 17.3797 3.50844 18.5526 4.48743 19.5686L4.66918 19.3934ZM2.42201 15.9555C1.89871 14.6383 1.63654 13.2207 1.63654 11.7015H1.38414C1.38414 13.2503 1.65156 14.6998 2.18744 16.0487L2.42201 15.9555ZM1.63654 11.7015C1.63654 10.2008 1.89864 8.80165 2.42178 7.50282L2.18766 7.40852C1.65163 8.73936 1.38414 10.1708 1.38414 11.7015H1.63654ZM2.42145 7.50364C2.96338 6.18494 3.7124 5.03922 4.66837 4.06521L4.48824 3.88842C3.50847 4.88667 2.74177 6.06018 2.188 7.4077L2.42145 7.50364ZM4.66918 4.06438C5.62569 3.07178 6.73527 2.29596 7.99869 1.73644L7.89648 1.50567C6.60327 2.07838 5.46666 2.87306 4.48743 3.88925L4.66918 4.06438ZM7.99944 1.73611C9.27886 1.15947 10.6581 0.870694 12.1386 0.870694V0.618297C10.6243 0.618297 9.20947 0.913896 7.89573 1.506L7.99944 1.73611ZM12.1386 0.870694C13.4597 0.870694 14.641 1.06071 15.6841 1.4384L15.77 1.20108C14.6948 0.811774 13.4838 0.618297 12.1386 0.618297V0.870694ZM15.6859 1.43904C16.7283 1.7985 17.7469 2.39264 18.7415 3.22445L18.9034 3.03084C17.8892 2.18257 16.8441 1.57145 15.7682 1.20043L15.6859 1.43904ZM18.7449 3.22726C18.8918 3.34146 18.9718 3.46391 19.0005 3.5933L19.2469 3.53855C19.2026 3.33924 19.0818 3.16949 18.8999 3.02803L18.7449 3.22726ZM19.0056 3.61024C19.0496 3.72776 19.0496 3.84237 19.0056 3.95989L19.2419 4.04852C19.3074 3.87385 19.3074 3.69628 19.2419 3.52161L19.0056 3.61024ZM19.0013 3.9736C18.9691 4.10231 18.9135 4.21275 18.835 4.30691L19.0289 4.46849C19.1331 4.34351 19.2053 4.19829 19.2462 4.03481L19.0013 3.9736ZM18.8078 4.36513C18.7778 4.53014 18.689 4.66669 18.5309 4.77738L18.6756 4.98415C18.8828 4.83918 19.0131 4.64702 19.0562 4.41028L18.8078 4.36513ZM18.5333 4.77576C18.3935 4.86893 18.2182 4.91892 18.0006 4.91892V5.17132C18.2579 5.17132 18.4843 5.11174 18.6733 4.98577L18.5333 4.77576ZM18.0006 4.91892C17.7977 4.91892 17.5866 4.84132 17.3654 4.67117L17.2115 4.87122C17.4651 5.0663 17.7288 5.17132 18.0006 5.17132V4.91892ZM17.3726 4.67715C16.6677 4.04649 15.9053 3.58112 15.0854 3.28297L14.9991 3.52017C15.7862 3.80639 16.5213 4.25411 17.2043 4.86524L17.3726 4.67715ZM15.0877 3.28385C14.2659 2.96634 13.2818 2.8097 12.1386 2.8097V3.0621C13.2599 3.0621 14.2115 3.2159 14.9968 3.51929L15.0877 3.28385ZM12.1386 2.8097C10.9702 2.8097 9.86544 3.05094 8.82579 3.53364L8.93207 3.76257C9.93773 3.29565 11.0061 3.0621 12.1386 3.0621V2.8097ZM8.82671 3.53322C7.80754 3.99647 6.90861 4.63596 6.13057 5.45105L6.31314 5.62532C7.06908 4.83339 7.94154 4.21282 8.93115 3.76299L8.82671 3.53322ZM6.13057 5.45105C5.35246 6.26621 4.74139 7.21085 4.29734 8.28397L4.53056 8.38048C4.96307 7.33525 5.55727 6.41719 6.31314 5.62532L6.13057 5.45105ZM4.29664 8.28571C3.8705 9.36031 3.65772 10.4992 3.65772 11.7015H3.91012C3.91012 10.5297 4.11736 9.4225 4.53126 8.37875L4.29664 8.28571ZM3.65772 11.7015C3.65772 12.9398 3.87033 14.097 4.29664 15.1721L4.53126 15.0791C4.11754 14.0357 3.91012 12.9103 3.91012 11.7015H3.65772ZM4.29734 15.1738C4.74139 16.247 5.35246 17.1916 6.13057 18.0068L6.31314 17.8325C5.55727 17.0406 4.96307 16.1226 4.53056 15.0773L4.29734 15.1738ZM6.13057 18.0068C6.90861 18.8218 7.80754 19.4613 8.82671 19.9246L8.93115 19.6948C7.94154 19.245 7.06908 18.6244 6.31314 17.8325L6.13057 18.0068ZM8.82749 19.9249C9.86678 20.3889 10.9709 20.6207 12.1386 20.6207V20.3683C11.0054 20.3683 9.9364 20.1436 8.93038 19.6945L8.82749 19.9249ZM12.1386 20.6207C13.1211 20.6207 14.0584 20.4538 14.9496 20.1196L14.861 19.8833C13.9991 20.2065 13.0919 20.3683 12.1386 20.3683V20.6207ZM14.9496 20.1196C15.8382 19.7864 16.6887 19.3147 17.5011 18.7054L17.3497 18.5035C16.5551 19.0994 15.7255 19.5591 14.861 19.8833L14.9496 20.1196ZM17.5034 18.7037C17.7394 18.5182 17.9613 18.4524 18.1745 18.4828L18.2102 18.233C17.9121 18.1904 17.6227 18.2889 17.3474 18.5052L17.5034 18.7037ZM18.1757 18.483C18.4207 18.5156 18.6216 18.6205 18.7838 18.7989L18.9706 18.6291C18.7676 18.4058 18.5119 18.2732 18.2091 18.2328L18.1757 18.483ZM18.7923 18.8074C18.9614 18.9611 19.0523 19.1797 19.0523 19.481H19.3047C19.3047 19.1248 19.1947 18.8321 18.9621 18.6206L18.7923 18.8074ZM19.0523 19.481C19.0523 19.6313 19.0273 19.76 18.9804 19.8696L19.2123 19.969C19.275 19.8229 19.3047 19.6594 19.3047 19.481H19.0523ZM18.9804 19.8696C18.9305 19.9858 18.8542 20.114 18.7489 20.2544L18.9508 20.4059C19.0646 20.2541 19.1526 20.1084 19.2123 19.969L18.9804 19.8696ZM18.7672 20.2347C17.8297 21.0461 16.794 21.6403 15.6598 22.0183L15.7396 22.2578C16.9063 21.8689 17.9707 21.2578 18.9324 20.4256L18.7672 20.2347ZM15.6609 22.018C14.5418 22.379 13.3679 22.5597 12.1386 22.5597V22.8121C13.393 22.8121 14.5931 22.6276 15.7384 22.2582L15.6609 22.018ZM25.1623 21.5628L25.0989 21.672L25.0997 21.6724L25.1623 21.5628ZM22.4778 18.851L22.5874 18.7883L22.4778 18.851ZM22.4778 10.9893L22.3683 10.9267L22.4778 10.9893ZM25.1623 8.27744L25.0997 8.16787L25.0989 8.16831L25.1623 8.27744ZM32.9966 8.27744L32.9332 8.38658L32.9966 8.27744ZM35.681 10.9893L35.7906 10.9267L35.681 10.9893ZM36.6945 14.9338H36.8208L36.8207 14.9323L36.6945 14.9338ZM35.7084 18.851L35.5988 18.7883L35.7084 18.851ZM32.9966 21.5628L32.9339 21.4532L32.9332 21.4537L32.9966 21.5628ZM31.8461 19.7549L31.9103 19.8636L31.9121 19.8625L31.8461 19.7549ZM33.7362 17.7826L33.8465 17.8439L33.847 17.8429L33.7362 17.7826ZM33.7362 12.085L33.6253 12.1453L33.7362 12.085ZM31.8461 10.1127L31.7801 10.2203L31.7819 10.2214L31.8461 10.1127ZM26.3402 10.1127L26.4044 10.2214L26.4051 10.221L26.3402 10.1127ZM24.4227 12.085L24.3128 12.0229L24.3118 12.0247L24.4227 12.085ZM24.4227 17.7826L24.3118 17.8429L24.3134 17.8458L24.4227 17.7826ZM26.3402 19.7549L26.2741 19.8625L26.277 19.8642L26.3402 19.7549ZM29.1068 22.4228C27.647 22.4228 26.3542 22.0985 25.2249 21.4532L25.0997 21.6724C26.2714 22.3419 27.6083 22.6751 29.1068 22.6751V22.4228ZM25.2257 21.4537C24.1129 20.8076 23.2339 19.9198 22.5874 18.7883L22.3683 18.9136C23.0366 20.0831 23.9472 21.0032 25.0989 21.672L25.2257 21.4537ZM22.5874 18.7883C21.942 17.6588 21.6179 16.3751 21.6179 14.9338H21.3655C21.3655 16.4144 21.6988 17.7421 22.3683 18.9136L22.5874 18.7883ZM21.6179 14.9338C21.6179 13.474 21.9421 12.1812 22.5874 11.0519L22.3683 10.9267C21.6987 12.0984 21.3655 13.4353 21.3655 14.9338H21.6179ZM22.5874 11.0519C23.2339 9.92049 24.1129 9.03269 25.2257 8.38658L25.0989 8.16831C23.9472 8.83703 23.0366 9.75714 22.3683 10.9267L22.5874 11.0519ZM25.2249 8.38701C26.3542 7.74171 27.647 7.41751 29.1068 7.41751V7.16511C27.6083 7.16511 26.2714 7.49833 25.0997 8.16787L25.2249 8.38701ZM29.1068 7.41751C30.5481 7.41751 31.8224 7.74159 32.9332 8.38658L33.0599 8.16831C31.9063 7.49845 30.5874 7.16511 29.1068 7.16511V7.41751ZM32.9332 8.38658C34.0459 9.03269 34.9249 9.92049 35.5715 11.0519L35.7906 10.9267C35.1223 9.75714 34.2116 8.83703 33.0599 8.16831L32.9332 8.38658ZM35.5715 11.0519C36.217 12.1817 36.5503 13.4751 36.5684 14.9354L36.8207 14.9323C36.8022 13.4342 36.4598 12.0979 35.7906 10.9267L35.5715 11.0519ZM36.5684 14.9338C36.5684 16.3751 36.2443 17.6588 35.5988 18.7883L35.818 18.9136C36.4874 17.7421 36.8207 16.4144 36.8207 14.9338H36.5684ZM35.5988 18.7883C34.9526 19.9193 34.0649 20.807 32.9339 21.4532L33.0592 21.6724C34.2292 21.0038 35.1494 20.0836 35.818 18.9136L35.5988 18.7883ZM32.9332 21.4537C31.8224 22.0987 30.5481 22.4228 29.1068 22.4228V22.6751C30.5874 22.6751 31.9063 22.3418 33.0599 21.672L32.9332 21.4537ZM29.1068 20.5933C30.1498 20.5933 31.0855 20.3509 31.9103 19.8636L31.7819 19.6463C30.9996 20.1085 30.1091 20.3409 29.1068 20.3409V20.5933ZM31.9121 19.8625C32.734 19.3581 33.3794 18.6847 33.8465 17.8439L33.6258 17.7214C33.1799 18.5241 32.5651 19.1656 31.7801 19.6474L31.9121 19.8625ZM33.847 17.8429C34.3147 16.9824 34.5472 16.0117 34.5472 14.9338H34.2948C34.2948 15.9743 34.0707 16.9028 33.6253 17.7224L33.847 17.8429ZM34.5472 14.9338C34.5472 13.8559 34.3147 12.8852 33.847 12.0247L33.6253 12.1453C34.0707 12.9649 34.2948 13.8934 34.2948 14.9338H34.5472ZM33.847 12.0247C33.3799 11.1652 32.7339 10.4908 31.9103 10.0041L31.7819 10.2214C32.5652 10.6843 33.1794 11.3248 33.6253 12.1453L33.847 12.0247ZM31.9121 10.0052C31.087 9.4989 30.1507 9.24694 29.1068 9.24694V9.49934C30.1082 9.49934 30.9981 9.74045 31.7801 10.2203L31.9121 10.0052ZM29.1068 9.24694C28.0629 9.24694 27.118 9.4989 26.2752 10.0045L26.4051 10.221C27.2059 9.74045 28.1054 9.49934 29.1068 9.49934V9.24694ZM26.276 10.0041C25.4528 10.4905 24.7981 11.1643 24.3128 12.0229L24.5326 12.1471C24.9969 11.3256 25.6206 10.6846 26.4044 10.2214L26.276 10.0041ZM24.3118 12.0247C23.8442 12.8852 23.6117 13.8559 23.6117 14.9338H23.8641C23.8641 13.8934 24.0881 12.9649 24.5336 12.1453L24.3118 12.0247ZM23.6117 14.9338C23.6117 16.0117 23.8442 16.9824 24.3118 17.8429L24.5336 17.7224C24.0881 16.9028 23.8641 15.9743 23.8641 14.9338H23.6117ZM24.3134 17.8458C24.7987 18.6856 25.4526 19.3584 26.2742 19.8625L26.4062 19.6474C25.6207 19.1653 24.9963 18.5232 24.532 17.7195L24.3134 17.8458ZM26.277 19.8642C27.1195 20.3509 28.0638 20.5933 29.1068 20.5933V20.3409C28.1046 20.3409 27.2044 20.1085 26.4033 19.6456L26.277 19.8642ZM42.1123 21.8094L42.0386 21.9118L42.0408 21.9133L42.1123 21.8094ZM40.7426 20.0836L40.8577 20.0318L40.7426 20.0836ZM40.5509 1.34713L40.4617 1.25789V1.25789L40.5509 1.34713ZM42.1945 1.34713L42.1011 1.43273L42.1092 1.44016L42.1945 1.34713ZM42.9614 19.4262L42.8528 19.4906L42.8558 19.4953L42.9614 19.4262ZM45.5363 20.4671L45.4393 20.548L45.443 20.552L45.5363 20.4671ZM45.3994 22.1107L45.4774 22.2099L45.4782 22.2092L45.3994 22.1107ZM44.1393 22.2858C43.3957 22.2858 42.7454 22.0915 42.1838 21.7054L42.0408 21.9133C42.6479 22.3308 43.349 22.5382 44.1393 22.5382V22.2858ZM42.1859 21.7069C41.6216 21.3012 41.1784 20.7444 40.8577 20.0318L40.6276 20.1354C40.9643 20.8838 41.4342 21.4774 42.0386 21.9118L42.1859 21.7069ZM40.8577 20.0318C40.5376 19.3204 40.3758 18.4985 40.3758 17.5635H40.1234C40.1234 18.5277 40.2903 19.3859 40.6276 20.1354L40.8577 20.0318ZM40.3758 17.5635V2.16891H40.1234V17.5635H40.3758ZM40.3758 2.16891C40.3758 1.84752 40.468 1.60853 40.6401 1.43637L40.4617 1.25789C40.2321 1.48749 40.1234 1.79635 40.1234 2.16891H40.3758ZM40.6401 1.43637C40.8327 1.24382 41.0822 1.14462 41.4001 1.14462V0.892222C41.024 0.892222 40.7074 1.01216 40.4617 1.25789L40.6401 1.43637ZM41.4001 1.14462C41.6976 1.14462 41.9271 1.24226 42.1014 1.43241L42.2875 1.26185C42.06 1.01372 41.76 0.892222 41.4001 0.892222V1.14462ZM42.1092 1.44016C42.2978 1.61308 42.397 1.85083 42.397 2.16891H42.6494C42.6494 1.79303 42.5294 1.48293 42.2797 1.2541L42.1092 1.44016ZM42.397 2.16891V17.5635H42.6494V2.16891H42.397ZM42.397 17.5635C42.397 18.3281 42.5461 18.9729 42.8529 19.4905L43.07 19.3619C42.7924 18.8934 42.6494 18.2964 42.6494 17.5635H42.397ZM42.8558 19.4953C43.1843 19.9977 43.6132 20.2646 44.1393 20.2646V20.0122C43.7159 20.0122 43.3595 19.8043 43.0671 19.3571L42.8558 19.4953ZM44.1393 20.2646H44.8241V20.0122H44.1393V20.2646ZM44.8241 20.2646C45.0799 20.2646 45.2814 20.3583 45.4394 20.5479L45.6333 20.3863C45.426 20.1376 45.1527 20.0122 44.8241 20.0122V20.2646ZM45.443 20.552C45.6002 20.725 45.6841 20.9572 45.6841 21.2615H45.9365C45.9365 20.9084 45.8377 20.611 45.6297 20.3822L45.443 20.552ZM45.6841 21.2615C45.6841 21.5696 45.5649 21.8166 45.3205 22.0121L45.4782 22.2092C45.7817 21.9664 45.9365 21.6473 45.9365 21.2615H45.6841ZM45.3214 22.0114C45.0938 22.1903 44.7859 22.2858 44.3859 22.2858V22.5382C44.8258 22.5382 45.1937 22.4328 45.4773 22.2099L45.3214 22.0114ZM44.3859 22.2858H44.1393V22.5382H44.3859V22.2858ZM50.0037 21.8094L49.93 21.9118L49.9322 21.9133L50.0037 21.8094ZM48.6341 20.0836L48.7491 20.0318L48.6341 20.0836ZM48.4423 1.34713L48.3531 1.25789V1.25789L48.4423 1.34713ZM50.0859 1.34713L49.9925 1.43273L50.0006 1.44016L50.0859 1.34713ZM50.8528 19.4262L50.7442 19.4906L50.7472 19.4953L50.8528 19.4262ZM53.4277 20.4671L53.3307 20.548L53.3344 20.552L53.4277 20.4671ZM53.2908 22.1107L53.3688 22.2099L53.3696 22.2092L53.2908 22.1107ZM52.0307 22.2858C51.2871 22.2858 50.6368 22.0915 50.0752 21.7054L49.9322 21.9133C50.5393 22.3308 51.2404 22.5382 52.0307 22.5382V22.2858ZM50.0773 21.7069C49.513 21.3012 49.0698 20.7444 48.7491 20.0318L48.519 20.1354C48.8557 20.8838 49.3256 21.4774 49.93 21.9118L50.0773 21.7069ZM48.7491 20.0318C48.429 19.3204 48.2672 18.4985 48.2672 17.5635H48.0148C48.0148 18.5277 48.1817 19.3859 48.519 20.1354L48.7491 20.0318ZM48.2672 17.5635V2.16891H48.0148V17.5635H48.2672ZM48.2672 2.16891C48.2672 1.84752 48.3594 1.60853 48.5315 1.43637L48.3531 1.25789C48.1235 1.48749 48.0148 1.79635 48.0148 2.16891H48.2672ZM48.5315 1.43637C48.7241 1.24382 48.9736 1.14462 49.2915 1.14462V0.892222C48.9154 0.892222 48.5988 1.01216 48.3531 1.25789L48.5315 1.43637ZM49.2915 1.14462C49.589 1.14462 49.8185 1.24226 49.9928 1.43241L50.1789 1.26185C49.9514 1.01372 49.6514 0.892222 49.2915 0.892222V1.14462ZM50.0006 1.44016C50.1892 1.61308 50.2884 1.85083 50.2884 2.16891H50.5408C50.5408 1.79303 50.4208 1.48293 50.1711 1.2541L50.0006 1.44016ZM50.2884 2.16891V17.5635H50.5408V2.16891H50.2884ZM50.2884 17.5635C50.2884 18.3281 50.4375 18.9729 50.7443 19.4905L50.9614 19.3619C50.6838 18.8934 50.5408 18.2964 50.5408 17.5635H50.2884ZM50.7472 19.4953C51.0757 19.9977 51.5046 20.2646 52.0307 20.2646V20.0122C51.6073 20.0122 51.2509 19.8043 50.9585 19.3571L50.7472 19.4953ZM52.0307 20.2646H52.7155V20.0122H52.0307V20.2646ZM52.7155 20.2646C52.9713 20.2646 53.1728 20.3583 53.3308 20.5479L53.5247 20.3863C53.3174 20.1376 53.0441 20.0122 52.7155 20.0122V20.2646ZM53.3344 20.552C53.4916 20.725 53.5755 20.9572 53.5755 21.2615H53.8279C53.8279 20.9084 53.7291 20.611 53.5211 20.3822L53.3344 20.552ZM53.5755 21.2615C53.5755 21.5696 53.4563 21.8166 53.2119 22.0121L53.3696 22.2092C53.6731 21.9664 53.8279 21.6473 53.8279 21.2615H53.5755ZM53.2128 22.0114C52.9852 22.1903 52.6773 22.2858 52.2773 22.2858V22.5382C52.7172 22.5382 53.0851 22.4328 53.3688 22.2099L53.2128 22.0114ZM52.2773 22.2858H52.0307V22.5382H52.2773V22.2858ZM58.5176 21.5628L58.4514 21.6702L58.4527 21.671L58.5176 21.5628ZM55.9153 18.8236L55.805 18.8849L55.9153 18.8236ZM55.9427 11.0167L55.8339 10.9528L55.8332 10.9541L55.9427 11.0167ZM58.682 8.30483L58.7446 8.41441L58.7459 8.41365L58.682 8.30483ZM66.4067 8.30483L66.342 8.41322L66.3441 8.4144L66.4067 8.30483ZM69.1185 11.0167L69.0089 11.0793L69.0097 11.0806L69.1185 11.0167ZM70.1594 14.9338L70.2159 15.0467L70.2866 15.0113L70.2856 14.9322L70.1594 14.9338ZM69.2281 15.3995L69.1717 15.2866L69.1019 15.3215V15.3995H69.2281ZM68.2968 19.0427L68.1874 18.9797L68.1866 18.9811L68.2968 19.0427ZM65.804 21.6176L65.8687 21.726L65.8692 21.7257L65.804 21.6176ZM65.2836 19.7549L65.3489 19.8629L65.3496 19.8625L65.2836 19.7549ZM67.1737 17.7553L67.0638 17.6932L67.0628 17.695L67.1737 17.7553ZM67.1737 12.1124L67.0627 12.1727L67.0644 12.1755L67.1737 12.1124ZM65.2836 10.1127L65.2165 10.2196L65.2176 10.2203L65.2836 10.1127ZM59.8325 10.1127L59.7675 10.0045L59.7665 10.0052L59.8325 10.1127ZM57.915 12.1124L58.0243 12.1755L58.0248 12.1745L57.915 12.1124ZM57.915 17.7553L58.0248 17.6932L57.915 17.7553ZM59.8325 19.7549L59.7664 19.8625L59.7693 19.8642L59.8325 19.7549ZM68.1324 22.1107L68.0429 22.2002L68.0509 22.207L68.1324 22.1107ZM67.8037 16.7417L67.6804 16.7148L67.6775 16.7281V16.7417H67.8037ZM68.3242 14.3586L68.3619 14.2382L68.2303 14.1969L68.2009 14.3317L68.3242 14.3586ZM70.1594 14.9338H70.2856V14.8411L70.1972 14.8134L70.1594 14.9338ZM69.8307 22.1107L69.9161 22.2038L69.92 22.1999L69.8307 22.1107ZM62.243 22.4228C60.876 22.4228 59.657 22.0993 58.5826 21.4546L58.4527 21.671C59.5697 22.3412 60.8343 22.6751 62.243 22.6751V22.4228ZM58.5839 21.4554C57.507 20.7913 56.6546 19.8943 56.0257 18.7623L55.805 18.8849C56.4544 20.0538 57.3369 20.9829 58.4514 21.6702L58.5839 21.4554ZM56.0257 18.7623C55.3979 17.6323 55.0828 16.3572 55.0828 14.9338H54.8304C54.8304 16.3958 55.1545 17.7139 55.805 18.8849L56.0257 18.7623ZM55.0828 14.9338C55.0828 13.4925 55.4069 12.2088 56.0523 11.0793L55.8332 10.9541C55.1637 12.1255 54.8304 13.4532 54.8304 14.9338H55.0828ZM56.0515 11.0806C56.7162 9.94897 57.6134 9.06082 58.7446 8.4144L58.6194 8.19526C57.4496 8.86369 56.5207 9.78344 55.8339 10.9528L56.0515 11.0806ZM58.7459 8.41365C59.8754 7.75027 61.1496 7.41751 62.5717 7.41751V7.16511C61.1085 7.16511 59.7895 7.50803 58.6181 8.19601L58.7459 8.41365ZM62.5717 7.41751C63.9753 7.41751 65.2309 7.75012 66.342 8.4132L66.4713 8.19646C65.318 7.50818 64.017 7.16511 62.5717 7.16511V7.41751ZM66.3441 8.4144C67.475 9.06065 68.3627 9.94838 69.009 11.0793L69.2281 10.9541C68.5595 9.78403 67.6393 8.86386 66.4693 8.19526L66.3441 8.4144ZM69.0097 11.0806C69.6732 12.2104 70.0152 13.4943 70.0333 14.9354L70.2856 14.9322C70.2671 13.4515 69.9152 12.124 69.2273 10.9528L69.0097 11.0806ZM70.103 14.821L69.1717 15.2866L69.2845 15.5124L70.2159 15.0467L70.103 14.821ZM69.1019 15.3995C69.1019 16.7307 68.7963 17.9231 68.1874 18.9797L68.4061 19.1057C69.039 18.0075 69.3543 16.771 69.3543 15.3995H69.1019ZM68.1866 18.9811C67.5947 20.0394 66.7793 20.8817 65.7388 21.5096L65.8692 21.7257C66.9471 21.0752 67.7935 20.2009 68.4069 19.1043L68.1866 18.9811ZM65.7394 21.5092C64.7199 22.1173 63.5557 22.4228 62.243 22.4228V22.6751C63.5965 22.6751 64.8063 22.3597 65.8687 21.726L65.7394 21.5092ZM62.5717 20.5933C63.6147 20.5933 64.5417 20.3509 65.3489 19.8629L65.2183 19.6469C64.4549 20.1085 63.5741 20.3409 62.5717 20.3409V20.5933ZM65.3496 19.8625C66.1722 19.3577 66.8176 18.6747 67.2845 17.8155L67.0628 17.695C66.6166 18.5159 66.002 19.166 65.2176 19.6474L65.3496 19.8625ZM67.2835 17.8174C67.7699 16.9569 68.0121 15.9947 68.0121 14.9338H67.7597C67.7597 15.9547 67.5271 16.8735 67.0638 17.6932L67.2835 17.8174ZM68.0121 14.9338C68.0121 13.8551 67.7701 12.8924 67.2829 12.0493L67.0644 12.1755C67.5269 12.976 67.7597 13.8942 67.7597 14.9338H68.0121ZM67.2845 12.0521C66.8176 11.193 66.1722 10.51 65.3496 10.0052L65.2176 10.2203C66.002 10.7016 66.6166 11.3518 67.0628 12.1727L67.2845 12.0521ZM65.3507 10.0059C64.5433 9.49889 63.6156 9.24694 62.5717 9.24694V9.49934C63.5732 9.49934 64.4534 9.74046 65.2165 10.2196L65.3507 10.0059ZM62.5717 9.24694C61.5456 9.24694 60.6099 9.49912 59.7675 10.0045L59.8974 10.221C60.6986 9.74023 61.5891 9.49934 62.5717 9.49934V9.24694ZM59.7665 10.0052C58.9443 10.5097 58.2902 11.1921 57.8051 12.0503L58.0248 12.1745C58.4894 11.3526 59.1136 10.7019 59.8985 10.2203L59.7665 10.0052ZM57.8057 12.0493C57.3186 12.8924 57.0766 13.8551 57.0766 14.9338H57.329C57.329 13.8942 57.5618 12.976 58.0243 12.1755L57.8057 12.0493ZM57.0766 14.9338C57.0766 15.9947 57.3188 16.9569 57.8051 17.8174L58.0248 17.6932C57.5616 16.8735 57.329 15.9547 57.329 14.9338H57.0766ZM57.8051 17.8174C58.2902 18.6756 58.9443 19.3579 59.7665 19.8625L59.8985 19.6474C59.1136 19.1657 58.4894 18.515 58.0248 17.6932L57.8051 17.8174ZM59.7693 19.8642C60.6114 20.3507 61.5465 20.5933 62.5717 20.5933V20.3409C61.5882 20.3409 60.6971 20.1087 59.8956 19.6456L59.7693 19.8642ZM68.9816 22.2858C68.6809 22.2858 68.4272 22.1948 68.2139 22.0143L68.0509 22.207C68.3124 22.4283 68.6249 22.5382 68.9816 22.5382V22.2858ZM68.2216 22.0214C68.0291 21.8289 67.9299 21.5794 67.9299 21.2615H67.6775C67.6775 21.6376 67.7974 21.9542 68.0432 22.1999L68.2216 22.0214ZM67.9299 21.2615V16.7417H67.6775V21.2615H67.9299ZM67.927 16.7687L68.4474 14.3855L68.2009 14.3317L67.6804 16.7148L67.927 16.7687ZM68.2864 14.479L70.1217 15.0542L70.1972 14.8134L68.3619 14.2382L68.2864 14.479ZM70.0332 14.9338V21.2615H70.2856V14.9338H70.0332ZM70.0332 21.2615C70.0332 21.5794 69.9341 21.8289 69.7415 22.0214L69.92 22.1999C70.1657 21.9542 70.2856 21.6376 70.2856 21.2615H70.0332ZM69.7455 22.0176C69.5534 22.1937 69.3026 22.2858 68.9816 22.2858V22.5382C69.3545 22.5382 69.6698 22.4294 69.916 22.2037L69.7455 22.0176ZM77.9877 21.5628L77.923 21.6712L77.9244 21.672L77.9877 21.5628ZM75.2759 18.851L75.1663 18.9136L75.1675 18.9156L75.2759 18.851ZM74.2623 14.9886H74.1361L74.1362 14.9902L74.2623 14.9886ZM74.5637 1.34713L74.4744 1.25789V1.25789L74.5637 1.34713ZM76.262 1.34713L76.1686 1.43273L76.1767 1.44016L76.262 1.34713ZM76.5907 10.0306H76.4645V10.4161L76.6925 10.1052L76.5907 10.0306ZM78.9465 8.0583L79.0038 8.17076L79.0054 8.16988L78.9465 8.0583ZM85.9042 8.30483L85.8379 8.41226L85.8392 8.41305L85.9042 8.30483ZM88.4791 11.0167L88.368 11.0766L88.3687 11.078L88.4791 11.0167ZM88.4243 18.8236L88.3155 18.7597L88.3147 18.761L88.4243 18.8236ZM85.7124 21.5628L85.7758 21.672L85.7763 21.6716L85.7124 21.5628ZM84.5619 19.7275L84.497 19.6193L84.4959 19.62L84.5619 19.7275ZM86.4794 17.7553L86.3695 17.6932L86.3691 17.694L86.4794 17.7553ZM86.4794 12.085L86.3685 12.1453L86.3695 12.1471L86.4794 12.085ZM84.5619 10.1127L84.4959 10.2203L84.4988 10.222L84.5619 10.1127ZM79.1108 10.1127L79.175 10.2214L79.1758 10.221L79.1108 10.1127ZM77.2207 12.085L77.3316 12.1453L77.2207 12.085ZM77.2207 17.7553L77.1098 17.8155L77.1104 17.8165L77.2207 17.7553ZM79.1108 19.7275L79.0448 19.8351L79.0459 19.8357L79.1108 19.7275ZM81.8227 22.4228C80.4185 22.4228 79.1624 22.099 78.0511 21.4537L77.9244 21.672C79.0775 22.3415 80.378 22.6751 81.8227 22.6751V22.4228ZM78.0524 21.4545C76.9381 20.7895 76.0492 19.9005 75.3842 18.7863L75.1675 18.9156C75.8539 20.0658 76.7729 20.9848 77.923 21.6712L78.0524 21.4545ZM75.3854 18.7883C74.7394 17.6578 74.4065 16.3916 74.3885 14.987L74.1362 14.9902C74.1547 16.4344 74.4975 17.7431 75.1663 18.9136L75.3854 18.7883ZM74.3885 14.9886V2.1963H74.1361V14.9886H74.3885ZM74.3885 2.1963C74.3885 1.85453 74.4819 1.60734 74.6529 1.43637L74.4744 1.25789C74.2436 1.48868 74.1361 1.8076 74.1361 2.1963H74.3885ZM74.6529 1.43637C74.8442 1.24508 75.102 1.14462 75.4402 1.14462V0.892222C75.0479 0.892222 74.7214 1.0109 74.4744 1.25789L74.6529 1.43637ZM75.4402 1.14462C75.7583 1.14462 75.996 1.24376 76.169 1.43241L76.355 1.26185C76.1262 1.01222 75.8161 0.892222 75.4402 0.892222V1.14462ZM76.1767 1.44016C76.364 1.61182 76.4645 1.85773 76.4645 2.1963H76.7169C76.7169 1.8044 76.5983 1.4842 76.3473 1.2541L76.1767 1.44016ZM76.4645 2.1963V10.0306H76.7169V2.1963H76.4645ZM76.6925 10.1052C77.2827 9.30037 78.0523 8.65546 79.0037 8.17075L78.8892 7.94585C77.9049 8.44727 77.104 9.11721 76.4889 9.95593L76.6925 10.1052ZM79.0054 8.16988C79.9536 7.66895 81.0105 7.41751 82.1788 7.41751V7.16511C80.973 7.16511 79.8751 7.42499 78.8875 7.94672L79.0054 8.16988ZM82.1788 7.41751C83.5452 7.41751 84.7637 7.74981 85.8379 8.41225L85.9704 8.19742C84.8532 7.50849 83.5882 7.16511 82.1788 7.16511V7.41751ZM85.8392 8.41305C86.915 9.05853 87.7576 9.9456 88.368 11.0766L88.5901 10.9568C87.9587 9.78681 87.0847 8.86598 85.9691 8.19662L85.8392 8.41305ZM88.3687 11.078C88.9965 12.208 89.3116 13.4831 89.3116 14.9064H89.564C89.564 13.4444 89.2399 12.1264 88.5894 10.9554L88.3687 11.078ZM89.3116 14.9064C89.3116 16.3471 88.9787 17.6304 88.3155 18.7597L88.5331 18.8875C89.2212 17.7158 89.564 16.3876 89.564 14.9064H89.3116ZM88.3147 18.761C87.6683 19.8922 86.7801 20.7894 85.6485 21.454L85.7763 21.6716C86.9457 20.9849 87.8654 20.0559 88.5339 18.8862L88.3147 18.761ZM85.649 21.4537C84.5382 22.0987 83.264 22.4228 81.8227 22.4228V22.6751C83.3032 22.6751 84.6222 22.3418 85.7758 21.672L85.649 21.4537ZM81.8227 20.5933C82.8666 20.5933 83.8029 20.3414 84.6279 19.8351L84.4959 19.62C83.714 20.0998 82.8241 20.3409 81.8227 20.3409V20.5933ZM84.6269 19.8357C85.4672 19.3315 86.1222 18.6581 86.5897 17.8165L86.3691 17.694C85.9235 18.496 85.3002 19.1374 84.497 19.6193L84.6269 19.8357ZM86.5893 17.8174C87.0758 16.9566 87.3178 15.9852 87.3178 14.9064H87.0654C87.0654 15.946 86.8326 16.8739 86.3695 17.6932L86.5893 17.8174ZM87.3178 14.9064C87.3178 13.8455 87.0756 12.8834 86.5893 12.0229L86.3695 12.1471C86.8328 12.9667 87.0654 13.8855 87.0654 14.9064H87.3178ZM86.5903 12.0247C86.1227 11.1644 85.4671 10.49 84.6251 10.0035L84.4988 10.222C85.3003 10.6851 85.923 11.3255 86.3685 12.1453L86.5903 12.0247ZM84.6279 10.0052C83.8029 9.4989 82.8666 9.24694 81.8227 9.24694V9.49934C82.8241 9.49934 83.714 9.74045 84.4959 10.2203L84.6279 10.0052ZM81.8227 9.24694C80.8144 9.24694 79.8879 9.49934 79.0459 10.0045L79.1758 10.221C79.9773 9.74001 80.8587 9.49934 81.8227 9.49934V9.24694ZM79.0466 10.0041C78.223 10.4908 77.577 11.1652 77.1099 12.0247L77.3316 12.1453C77.7775 11.3248 78.3917 10.6843 79.175 10.2214L79.0466 10.0041ZM77.1099 12.0247C76.6424 12.8849 76.4097 13.8464 76.4097 14.9064H76.6621C76.6621 13.8847 76.886 12.9652 77.3316 12.1453L77.1099 12.0247ZM76.4097 14.9064C76.4097 15.9843 76.6422 16.9551 77.1099 17.8155L77.3316 17.695C76.8862 16.8754 76.6621 15.9469 76.6621 14.9064H76.4097ZM77.1104 17.8165C77.5775 18.6574 78.2228 19.3307 79.0448 19.8351L79.1768 19.62C78.3918 19.1382 77.777 18.4967 77.3311 17.694L77.1104 17.8165ZM79.0459 19.8357C79.8879 20.3409 80.8144 20.5933 81.8227 20.5933V20.3409C80.8587 20.3409 79.9773 20.1003 79.1758 19.6193L79.0459 19.8357Z" fill="#9A54BC" mask="url(#path-1-outside-1_1_1187)"/>
</g>
<defs>
<filter id="filter0_d_1_1187" x="0.913525" y="0.371513" width="89.1211" height="23.135" filterUnits="userSpaceOnUse" color-interpolation-filters="sRGB">
<feFlood flood-opacity="0" result="BackgroundImageFix"/>
<feColorMatrix in="SourceAlpha" type="matrix" values="0 0 0 0 0 0 0 0 0 0 0 0 0 0 0 0 0 0 127 0" result="hardAlpha"/>
<feOffset dy="0.223796"/>
<feGaussianBlur stdDeviation="0.298395"/>
<feComposite in2="hardAlpha" operator="out"/>
<feColorMatrix type="matrix" values="0 0 0 0 0.721569 0 0 0 0 0.847059 0 0 0 0 0.94902 0 0 0 0.25 0"/>
<feBlend mode="normal" in2="BackgroundImageFix" result="effect1_dropShadow_1_1187"/>
<feBlend mode="normal" in="SourceGraphic" in2="effect1_dropShadow_1_1187" result="shape"/>
</filter>
</defs>
</svg>
