<svg width="26" height="26" viewBox="0 0 26 26" fill="none" xmlns="http://www.w3.org/2000/svg">
<path d="M17.4051 7.07495H8.16091C4.75729 7.07495 1.99811 9.83413 1.99811 13.2378C1.99811 16.6414 4.75729 19.4006 8.16091 19.4006H17.4051C20.8087 19.4006 23.5679 16.6414 23.5679 13.2378C23.5679 9.83413 20.8087 7.07495 17.4051 7.07495Z" fill="#56E6A5" stroke="#56E6A5" stroke-width="1.5407" stroke-linecap="round" stroke-linejoin="round"/>
<g filter="url(#filter0_d_1_1006)">
<path d="M17.4051 16.3192C19.1069 16.3192 20.4865 14.9396 20.4865 13.2378C20.4865 11.536 19.1069 10.1564 17.4051 10.1564C15.7033 10.1564 14.3237 11.536 14.3237 13.2378C14.3237 14.9396 15.7033 16.3192 17.4051 16.3192Z" fill="white"/>
<path d="M17.4051 16.3192C19.1069 16.3192 20.4865 14.9396 20.4865 13.2378C20.4865 11.536 19.1069 10.1564 17.4051 10.1564C15.7033 10.1564 14.3237 11.536 14.3237 13.2378C14.3237 14.9396 15.7033 16.3192 17.4051 16.3192Z" stroke="white" stroke-width="1.5407" stroke-linecap="round" stroke-linejoin="round"/>
</g>
<defs>
<filter id="filter0_d_1_1006" x="10.472" y="7.18499" width="13.8663" height="13.8663" filterUnits="userSpaceOnUse" color-interpolation-filters="sRGB">
<feFlood flood-opacity="0" result="BackgroundImageFix"/>
<feColorMatrix in="SourceAlpha" type="matrix" values="0 0 0 0 0 0 0 0 0 0 0 0 0 0 0 0 0 0 127 0" result="hardAlpha"/>
<feOffset dy="0.8804"/>
<feGaussianBlur stdDeviation="1.5407"/>
<feComposite in2="hardAlpha" operator="out"/>
<feColorMatrix type="matrix" values="0 0 0 0 0 0 0 0 0 0 0 0 0 0 0 0 0 0 0.13 0"/>
<feBlend mode="normal" in2="BackgroundImageFix" result="effect1_dropShadow_1_1006"/>
<feBlend mode="normal" in="SourceGraphic" in2="effect1_dropShadow_1_1006" result="shape"/>
</filter>
</defs>
</svg>
